<svg xmlns="http://www.w3.org/2000/svg" width="44.029" height="44" viewBox="0 0 44.029 44">
  <g id="Group_4693" data-name="Group 4693" transform="translate(1 1)">
    <path id="path1305" d="M-600.249-364.706v-8.162h-5.133a16.247,16.247,0,0,0-1.691-4.252l3.93-3.93-5.771-5.771-3.847,3.847a16.263,16.263,0,0,0-4.283-1.835v-5.433h-8.162v5.357a16.252,16.252,0,0,0-4.423,1.817l-3.526-3.526-5.771,5.771,3.543,3.543a16.24,16.24,0,0,0-1.785,4.411h-5.108v8.162h5.223a16.256,16.256,0,0,0,1.815,4.21l-3.745,3.744,5.772,5.771,3.827-3.827a16.254,16.254,0,0,0,4.013,1.633v4.932h8.162v-4.924a16.258,16.258,0,0,0,4.2-1.734l3.949,3.949,5.771-5.771-3.931-3.931a16.263,16.263,0,0,0,1.72-4.051Z" transform="translate(642.277 390.242)" fill="none" stroke="#fdb813" stroke-linecap="round" stroke-linejoin="round" stroke-width="2"/>
    <path id="path1309" d="M0-66.766l1.256,1.981a9.091,9.091,0,0,1,8.758-6.656,9.091,9.091,0,0,1,8.652,6.3" transform="translate(10.959 83.38)" fill="none" stroke="#fdb813" stroke-linecap="round" stroke-linejoin="round" stroke-width="2"/>
    <path id="path1313" d="M-33.106,0l-2.318.586" transform="translate(47.639 18.009)" fill="none" stroke="#fdb813" stroke-linecap="round" stroke-linejoin="round" stroke-width="2"/>
    <path id="path1317" d="M-266.594-28.287l-1.256-1.981a9.091,9.091,0,0,1-8.758,6.656,9.091,9.091,0,0,1-8.652-6.3" transform="translate(297.664 53.673)" fill="none" stroke="#fdb813" stroke-linecap="round" stroke-linejoin="round" stroke-width="2"/>
    <path id="path1321" d="M0-8.362l2.318-.586" transform="translate(27.495 32.354)" fill="none" stroke="#fdb813" stroke-linecap="round" stroke-linejoin="round" stroke-width="2"/>
  </g>
</svg>
