<svg xmlns="http://www.w3.org/2000/svg" width="43.924" height="39.741" viewBox="0 0 43.924 39.741">
  <g id="School" transform="translate(-2 -3)">
    <path id="Path_3403" data-name="Path 3403" d="M25.779,42.741A1.046,1.046,0,0,1,24.733,41.7V8.875l-7.321-3.66-7.321,3.66V41.7A1.046,1.046,0,1,1,8,41.7V8.229a1.046,1.046,0,0,1,.577-.935l8.367-4.183a1.046,1.046,0,0,1,.937,0l8.367,4.183a1.046,1.046,0,0,1,.577.935V41.7a1.046,1.046,0,0,1-1.046,1.046Z" transform="translate(6.55 0)" fill="#2b3344"/>
    <path id="Path_3404" data-name="Path 3404" d="M16.229,26.4a1.046,1.046,0,0,1-1.046-1.046V20.062H13.092v5.292a1.046,1.046,0,0,1-2.092,0V19.016a1.046,1.046,0,0,1,1.046-1.046h4.183a1.046,1.046,0,0,1,1.046,1.046v6.338A1.046,1.046,0,0,1,16.229,26.4Z" transform="translate(9.825 16.342)" fill="#2b3344"/>
    <path id="Path_3405" data-name="Path 3405" d="M27.5,38.375a1.046,1.046,0,0,1-1.046-1.046V9.092H17.046a1.046,1.046,0,1,1,0-2.092H27.5A1.046,1.046,0,0,1,28.55,8.046V37.329A1.046,1.046,0,0,1,27.5,38.375Z" transform="translate(15.283 4.367)" fill="#2b3344"/>
    <path id="Path_3406" data-name="Path 3406" d="M44.879,23.092H3.046a1.046,1.046,0,1,1,0-2.092H44.879a1.046,1.046,0,1,1,0,2.092Z" transform="translate(0 19.649)" fill="#2b3344"/>
    <path id="Path_3407" data-name="Path 3407" d="M13.137,16.092H11.046a1.046,1.046,0,1,1,0-2.092h2.092a1.046,1.046,0,1,1,0,2.092Z" transform="translate(8.733 12.008)" fill="#2b3344"/>
    <path id="Path_3408" data-name="Path 3408" d="M13.137,18.092H11.046a1.046,1.046,0,0,1,0-2.092h2.092a1.046,1.046,0,1,1,0,2.092Z" transform="translate(8.733 14.191)" fill="#2b3344"/>
    <path id="Path_3409" data-name="Path 3409" d="M16.137,16.092H14.046a1.046,1.046,0,0,1,0-2.092h2.092a1.046,1.046,0,0,1,0,2.092Z" transform="translate(12.008 12.008)" fill="#2b3344"/>
    <path id="Path_3410" data-name="Path 3410" d="M13.137,14.092H11.046a1.046,1.046,0,0,1,0-2.092h2.092a1.046,1.046,0,1,1,0,2.092Z" transform="translate(8.733 9.825)" fill="#2b3344"/>
    <path id="Path_3411" data-name="Path 3411" d="M16.137,14.092H14.046a1.046,1.046,0,0,1,0-2.092h2.092a1.046,1.046,0,0,1,0,2.092Z" transform="translate(12.008 9.825)" fill="#2b3344"/>
    <path id="Path_3412" data-name="Path 3412" d="M21.137,13.092H19.046a1.046,1.046,0,0,1,0-2.092h2.092a1.046,1.046,0,0,1,0,2.092Z" transform="translate(17.466 8.733)" fill="#2b3344"/>
    <path id="Path_3413" data-name="Path 3413" d="M21.137,15.092H19.046a1.046,1.046,0,0,1,0-2.092h2.092a1.046,1.046,0,0,1,0,2.092Z" transform="translate(17.466 10.916)" fill="#2b3344"/>
    <path id="Path_3414" data-name="Path 3414" d="M21.137,17.092H19.046a1.046,1.046,0,0,1,0-2.092h2.092a1.046,1.046,0,0,1,0,2.092Z" transform="translate(17.466 13.1)" fill="#2b3344"/>
    <path id="Path_3415" data-name="Path 3415" d="M21.137,19.092H19.046a1.046,1.046,0,0,1,0-2.092h2.092a1.046,1.046,0,0,1,0,2.092Z" transform="translate(17.466 15.283)" fill="#2b3344"/>
    <path id="Path_3416" data-name="Path 3416" d="M21.137,21.092H19.046a1.046,1.046,0,0,1,0-2.092h2.092a1.046,1.046,0,0,1,0,2.092Z" transform="translate(17.466 17.466)" fill="#2b3344"/>
    <path id="Path_3417" data-name="Path 3417" d="M4.046,38.375A1.046,1.046,0,0,1,3,37.329V8.046A1.046,1.046,0,0,1,4.046,7H14.5a1.046,1.046,0,1,1,0,2.092H5.092V37.329A1.046,1.046,0,0,1,4.046,38.375Z" transform="translate(1.092 4.367)" fill="#2b3344"/>
    <path id="Path_3418" data-name="Path 3418" d="M8.137,13.092H6.046a1.046,1.046,0,0,1,0-2.092H8.137a1.046,1.046,0,0,1,0,2.092Z" transform="translate(3.275 8.733)" fill="#2b3344"/>
    <path id="Path_3419" data-name="Path 3419" d="M21.137,11.092H19.046a1.046,1.046,0,1,1,0-2.092h2.092a1.046,1.046,0,0,1,0,2.092Z" transform="translate(17.466 6.55)" fill="#2b3344"/>
    <path id="Path_3420" data-name="Path 3420" d="M8.137,11.092H6.046A1.046,1.046,0,1,1,6.046,9H8.137a1.046,1.046,0,1,1,0,2.092Z" transform="translate(3.275 6.55)" fill="#2b3344"/>
    <path id="Path_3421" data-name="Path 3421" d="M8.137,15.092H6.046a1.046,1.046,0,0,1,0-2.092H8.137a1.046,1.046,0,0,1,0,2.092Z" transform="translate(3.275 10.916)" fill="#2b3344"/>
    <path id="Path_3422" data-name="Path 3422" d="M8.137,17.092H6.046a1.046,1.046,0,0,1,0-2.092H8.137a1.046,1.046,0,0,1,0,2.092Z" transform="translate(3.275 13.1)" fill="#2b3344"/>
    <path id="Path_3423" data-name="Path 3423" d="M8.137,19.092H6.046a1.046,1.046,0,0,1,0-2.092H8.137a1.046,1.046,0,0,1,0,2.092Z" transform="translate(3.275 15.283)" fill="#2b3344"/>
    <path id="Path_3424" data-name="Path 3424" d="M8.137,21.092H6.046a1.046,1.046,0,0,1,0-2.092H8.137a1.046,1.046,0,0,1,0,2.092Z" transform="translate(3.275 17.466)" fill="#2b3344"/>
    <path id="Path_3425" data-name="Path 3425" d="M16.137,18.092H14.046a1.046,1.046,0,0,1,0-2.092h2.092a1.046,1.046,0,0,1,0,2.092Z" transform="translate(12.008 14.191)" fill="#2b3344"/>
    <path id="Path_3426" data-name="Path 3426" d="M14.137,12.275a3.137,3.137,0,1,1,3.137-3.137,3.137,3.137,0,0,1-3.137,3.137Zm0-4.183a1.046,1.046,0,1,0,1.046,1.046A1.046,1.046,0,0,0,14.137,8.092Z" transform="translate(9.825 3.275)" fill="#2b3344"/>
  </g>
</svg>
