<svg id="Group_968" data-name="Group 968" xmlns="http://www.w3.org/2000/svg" width="315.478" height="105.285" viewBox="0 0 315.478 105.285">
  <g id="Group_35" data-name="Group 35" transform="translate(80.478 45.642)">
    <text id="Clicking_on_Submit_button_means_you_agree_to_receive_information_regarding_your_submitted_query" data-name="Clicking on Submit button means you agree to receive information regarding your submitted query" transform="translate(0 7)" fill="#666" font-size="12" font-family="NotoSans-Regular, Noto Sans"><tspan x="0" y="13">Clicking on Submit button means you </tspan><tspan x="0" y="29">agree to receive information regarding </tspan><tspan x="0" y="45">your submitted query</tspan></text>
  </g>
  <g id="Group_42" data-name="Group 42">
    <path id="Path_21" data-name="Path 21" d="M374.327,1561.83l-2.334-2.338-18.063,18.061-7.838-7.839-2.338,2.339,10.155,10.195.019-.019.019.019,2.339-2.336-.02-.021Z" transform="translate(-333.5 -1559.491)" fill="#0b964f"/>
    <g id="Group_36" data-name="Group 36" transform="translate(46.307 8.339)">
      <path id="Path_22" data-name="Path 22" d="M381.273,1579.558h-1.466V1568.44h1.466Z" transform="translate(-379.807 -1567.83)" fill="#404040"/>
      <path id="Path_23" data-name="Path 23" d="M383.831,1571.571l-.8-.55a3.669,3.669,0,0,0,.733-2.092v-1.1h1.4v.993a3.77,3.77,0,0,1-1.329,2.748Z" transform="translate(-379.807 -1567.83)" fill="#404040"/>
      <path id="Path_24" data-name="Path 24" d="M388.03,1571.3l.039.917a3.046,3.046,0,0,1,2.451-1.07,2.36,2.36,0,0,1,2.359,1.329,3.112,3.112,0,0,1,1.073-.962,3.161,3.161,0,0,1,1.561-.367q2.718,0,2.764,2.879v5.536h-1.412v-5.452a1.9,1.9,0,0,0-.4-1.325,1.781,1.781,0,0,0-1.359-.439,1.874,1.874,0,0,0-1.306.469,1.912,1.912,0,0,0-.6,1.265v5.482h-1.42v-5.414a1.576,1.576,0,0,0-1.764-1.8,1.889,1.889,0,0,0-1.9,1.183v6.033h-1.413V1571.3Z" transform="translate(-379.807 -1567.83)" fill="#404040"/>
      <path id="Path_25" data-name="Path 25" d="M405.615,1571.3l.046,1.039a3.009,3.009,0,0,1,2.474-1.192q2.619,0,2.642,2.956v5.459h-1.413v-5.468a1.9,1.9,0,0,0-.409-1.321,1.639,1.639,0,0,0-1.248-.427,2.033,2.033,0,0,0-1.206.367,2.5,2.5,0,0,0-.81.961v5.888h-1.412V1571.3Z" transform="translate(-379.807 -1567.83)" fill="#404040"/>
      <path id="Path_26" data-name="Path 26" d="M412.533,1575.351a4.879,4.879,0,0,1,.477-2.184,3.545,3.545,0,0,1,1.329-1.5,3.608,3.608,0,0,1,1.943-.528,3.478,3.478,0,0,1,2.729,1.169,4.5,4.5,0,0,1,1.043,3.108v.1a4.928,4.928,0,0,1-.462,2.165,3.516,3.516,0,0,1-1.321,1.493,3.663,3.663,0,0,1-1.974.534,3.474,3.474,0,0,1-2.722-1.168,4.471,4.471,0,0,1-1.042-3.093Zm1.42.167a3.534,3.534,0,0,0,.637,2.207,2.161,2.161,0,0,0,3.417-.011,3.864,3.864,0,0,0,.634-2.363,3.529,3.529,0,0,0-.645-2.2,2.05,2.05,0,0,0-1.714-.844,2.03,2.03,0,0,0-1.688.833A3.837,3.837,0,0,0,413.953,1575.518Z" transform="translate(-379.807 -1567.83)" fill="#404040"/>
      <path id="Path_27" data-name="Path 27" d="M423.742,1569.3v2h1.542v1.092h-1.542v5.13a1.135,1.135,0,0,0,.206.744.862.862,0,0,0,.7.249,3.5,3.5,0,0,0,.672-.091v1.139a4.164,4.164,0,0,1-1.084.151,1.759,1.759,0,0,1-1.428-.572,2.462,2.462,0,0,1-.481-1.628v-5.122h-1.5V1571.3h1.5v-2Z" transform="translate(-379.807 -1567.83)" fill="#404040"/>
      <path id="Path_28" data-name="Path 28" d="M435.9,1579.558a2.949,2.949,0,0,1-.2-.871,3.146,3.146,0,0,1-2.351,1.023,2.916,2.916,0,0,1-2.005-.691,2.236,2.236,0,0,1-.782-1.752,2.333,2.333,0,0,1,.981-2,4.618,4.618,0,0,1,2.76-.714h1.375v-.649a1.587,1.587,0,0,0-.443-1.18,1.785,1.785,0,0,0-1.306-.439,2.065,2.065,0,0,0-1.268.382,1.125,1.125,0,0,0-.511.924h-1.42a1.946,1.946,0,0,1,.439-1.2,2.982,2.982,0,0,1,1.191-.913,4.02,4.02,0,0,1,1.653-.336,3.271,3.271,0,0,1,2.237.713,2.578,2.578,0,0,1,.84,1.967v3.8a4.653,4.653,0,0,0,.29,1.809v.123Zm-2.344-1.078a2.462,2.462,0,0,0,1.26-.343,2.086,2.086,0,0,0,.863-.893v-1.7h-1.108q-2.595,0-2.6,1.519a1.289,1.289,0,0,0,.443,1.039A1.705,1.705,0,0,0,433.561,1578.48Z" transform="translate(-379.807 -1567.83)" fill="#404040"/>
      <path id="Path_29" data-name="Path 29" d="M447.175,1572.563a4.309,4.309,0,0,0-.695-.053,1.863,1.863,0,0,0-1.886,1.183v5.865h-1.412V1571.3h1.374l.023.954a2.2,2.2,0,0,1,1.97-1.107,1.43,1.43,0,0,1,.626.108Z" transform="translate(-379.807 -1567.83)" fill="#404040"/>
      <path id="Path_30" data-name="Path 30" d="M447.946,1575.351a4.879,4.879,0,0,1,.477-2.184,3.545,3.545,0,0,1,1.329-1.5,3.608,3.608,0,0,1,1.943-.528,3.482,3.482,0,0,1,2.73,1.169,4.5,4.5,0,0,1,1.042,3.108v.1a4.928,4.928,0,0,1-.462,2.165,3.51,3.51,0,0,1-1.321,1.493,3.663,3.663,0,0,1-1.974.534,3.474,3.474,0,0,1-2.722-1.168,4.471,4.471,0,0,1-1.042-3.093Zm1.42.167a3.534,3.534,0,0,0,.638,2.207,2.161,2.161,0,0,0,3.417-.011,3.871,3.871,0,0,0,.633-2.363,3.529,3.529,0,0,0-.645-2.2,2.049,2.049,0,0,0-1.714-.844,2.028,2.028,0,0,0-1.687.833A3.83,3.83,0,0,0,449.366,1575.518Z" transform="translate(-379.807 -1567.83)" fill="#404040"/>
      <path id="Path_31" data-name="Path 31" d="M464.233,1575.518a4.919,4.919,0,0,1-.871,3.044,2.782,2.782,0,0,1-2.336,1.148,2.881,2.881,0,0,1-2.421-1.107l-.069.955h-1.3V1567.83h1.413v4.374a2.865,2.865,0,0,1,2.359-1.061,2.8,2.8,0,0,1,2.364,1.138,5.064,5.064,0,0,1,.859,3.116Zm-1.413-.16a3.817,3.817,0,0,0-.558-2.23,1.847,1.847,0,0,0-1.6-.786,2.074,2.074,0,0,0-2.008,1.3v3.573a2.131,2.131,0,0,0,2.023,1.3,1.836,1.836,0,0,0,1.581-.786A4.055,4.055,0,0,0,462.82,1575.358Z" transform="translate(-379.807 -1567.83)" fill="#404040"/>
      <path id="Path_32" data-name="Path 32" d="M465.637,1575.351a4.866,4.866,0,0,1,.478-2.184,3.55,3.55,0,0,1,1.328-1.5,3.61,3.61,0,0,1,1.943-.528,3.482,3.482,0,0,1,2.73,1.169,4.5,4.5,0,0,1,1.042,3.108v.1a4.928,4.928,0,0,1-.462,2.165,3.51,3.51,0,0,1-1.321,1.493,3.657,3.657,0,0,1-1.973.534,3.473,3.473,0,0,1-2.722-1.168,4.471,4.471,0,0,1-1.043-3.093Zm1.421.167a3.534,3.534,0,0,0,.637,2.207,2.161,2.161,0,0,0,3.417-.011,3.864,3.864,0,0,0,.634-2.363,3.529,3.529,0,0,0-.645-2.2,2.052,2.052,0,0,0-1.715-.844,2.029,2.029,0,0,0-1.687.833A3.831,3.831,0,0,0,467.058,1575.518Z" transform="translate(-379.807 -1567.83)" fill="#404040"/>
      <path id="Path_33" data-name="Path 33" d="M476.846,1569.3v2h1.543v1.092h-1.543v5.13a1.141,1.141,0,0,0,.206.744.865.865,0,0,0,.7.249,3.5,3.5,0,0,0,.672-.091v1.139a4.165,4.165,0,0,1-1.084.151,1.756,1.756,0,0,1-1.428-.572,2.462,2.462,0,0,1-.481-1.628v-5.122h-1.5V1571.3h1.5v-2Z" transform="translate(-379.807 -1567.83)" fill="#404040"/>
    </g>
    <g id="Group_41" data-name="Group 41" transform="translate(0 49.811)">
      <g id="Group_37" data-name="Group 37" transform="translate(0 48.417)">
        <path id="Path_34" data-name="Path 34" d="M524.425,1603.2v1.979H523.5v-5.325h2.038a2.49,2.49,0,0,1,.824.126,1.767,1.767,0,0,1,.609.352,1.52,1.52,0,0,1,.379.539,1.752,1.752,0,0,1,.13.677,1.784,1.784,0,0,1-.13.694,1.374,1.374,0,0,1-.379.519,1.708,1.708,0,0,1-.609.325,2.733,2.733,0,0,1-.824.114Zm0-.743h1.113a1.406,1.406,0,0,0,.458-.065.832.832,0,0,0,.317-.187.706.706,0,0,0,.18-.287,1.151,1.151,0,0,0,0-.722.8.8,0,0,0-.18-.305.879.879,0,0,0-.317-.212,1.189,1.189,0,0,0-.458-.079h-1.113Z" transform="translate(-523.5 -1599.719)" fill="#999"/>
        <path id="Path_35" data-name="Path 35" d="M530.273,1602.034c-.059-.01-.118-.018-.178-.023s-.121-.007-.185-.007a1,1,0,0,0-.523.124.77.77,0,0,0-.3.344v2.707H528.2v-3.957h.848l.022.443a1.167,1.167,0,0,1,.372-.38.966.966,0,0,1,.52-.136,1.053,1.053,0,0,1,.175.016.7.7,0,0,1,.139.034Z" transform="translate(-523.5 -1599.719)" fill="#999"/>
        <path id="Path_36" data-name="Path 36" d="M530.835,1600.194a.474.474,0,0,1,.13-.34.488.488,0,0,1,.372-.135.5.5,0,0,1,.373.135.467.467,0,0,1,.131.34.453.453,0,0,1-.131.334.494.494,0,0,1-.373.134.487.487,0,0,1-.372-.134A.46.46,0,0,1,530.835,1600.194Zm.945,4.985h-.89v-3.957h.89Z" transform="translate(-523.5 -1599.719)" fill="#999"/>
        <path id="Path_37" data-name="Path 37" d="M534.142,1604.051l.837-2.829h.917l-1.37,3.957h-.773l-1.382-3.957h.922Z" transform="translate(-523.5 -1599.719)" fill="#999"/>
        <path id="Path_38" data-name="Path 38" d="M538.761,1605.179a.77.77,0,0,1-.061-.165c-.015-.064-.029-.132-.042-.206a1.584,1.584,0,0,1-.2.174,1.427,1.427,0,0,1-.237.14,1.458,1.458,0,0,1-.6.129,1.611,1.611,0,0,1-.545-.089,1.278,1.278,0,0,1-.426-.249,1.133,1.133,0,0,1-.278-.374,1.1,1.1,0,0,1-.1-.469,1.263,1.263,0,0,1,.119-.563,1.124,1.124,0,0,1,.351-.41,1.685,1.685,0,0,1,.565-.25,3.1,3.1,0,0,1,.763-.086h.56v-.26a.7.7,0,0,0-.172-.492.686.686,0,0,0-.523-.184.91.91,0,0,0-.285.043.689.689,0,0,0-.218.112.508.508,0,0,0-.138.17.46.46,0,0,0-.05.213h-.888a.969.969,0,0,1,.114-.453,1.268,1.268,0,0,1,.327-.387,1.651,1.651,0,0,1,.514-.271,2.1,2.1,0,0,1,.675-.1,2.036,2.036,0,0,1,.614.087,1.379,1.379,0,0,1,.487.254,1.152,1.152,0,0,1,.318.425,1.44,1.44,0,0,1,.113.594v1.755a2.033,2.033,0,0,0,.15.852v.063Zm-.977-.64a1.016,1.016,0,0,0,.528-.147.856.856,0,0,0,.188-.152.8.8,0,0,0,.129-.173v-.746h-.479a1.322,1.322,0,0,0-.743.171.561.561,0,0,0-.248.487.613.613,0,0,0,.039.222.483.483,0,0,0,.121.178.567.567,0,0,0,.2.118A.81.81,0,0,0,537.784,1604.539Z" transform="translate(-523.5 -1599.719)" fill="#999"/>
        <path id="Path_39" data-name="Path 39" d="M542.074,1604.542a.9.9,0,0,0,.3-.049.8.8,0,0,0,.246-.139.732.732,0,0,0,.168-.214.668.668,0,0,0,.071-.271h.837a1.255,1.255,0,0,1-.141.537,1.442,1.442,0,0,1-.347.441,1.621,1.621,0,0,1-.507.3,1.744,1.744,0,0,1-.617.108,1.865,1.865,0,0,1-.8-.157,1.559,1.559,0,0,1-.564-.429,1.8,1.8,0,0,1-.335-.631,2.686,2.686,0,0,1-.109-.769v-.127a2.68,2.68,0,0,1,.109-.769,1.827,1.827,0,0,1,.335-.634,1.586,1.586,0,0,1,.561-.429,1.84,1.84,0,0,1,.794-.157,1.864,1.864,0,0,1,.653.109,1.5,1.5,0,0,1,.5.307,1.427,1.427,0,0,1,.33.471,1.65,1.65,0,0,1,.129.6h-.837a.947.947,0,0,0-.064-.3.8.8,0,0,0-.157-.25.762.762,0,0,0-.243-.167.794.794,0,0,0-.322-.063.823.823,0,0,0-.447.112.838.838,0,0,0-.277.291,1.243,1.243,0,0,0-.142.41,2.866,2.866,0,0,0-.038.464v.127a2.894,2.894,0,0,0,.038.471,1.241,1.241,0,0,0,.142.408.812.812,0,0,0,.276.288A.824.824,0,0,0,542.074,1604.542Z" transform="translate(-523.5 -1599.719)" fill="#999"/>
        <path id="Path_40" data-name="Path 40" d="M545.751,1603.906l.806-2.684h.947l-1.573,4.556a2.892,2.892,0,0,1-.144.324,1.414,1.414,0,0,1-.234.323,1.219,1.219,0,0,1-.354.25,1.132,1.132,0,0,1-.5.1,1.275,1.275,0,0,1-.225-.019c-.074-.015-.143-.029-.2-.046v-.688a.471.471,0,0,0,.086.009h.083a1.267,1.267,0,0,0,.286-.027.581.581,0,0,0,.214-.09.639.639,0,0,0,.158-.165,1.193,1.193,0,0,0,.117-.25l.127-.341-1.389-3.938h.958Z" transform="translate(-523.5 -1599.719)" fill="#999"/>
        <path id="Path_41" data-name="Path 41" d="M551.6,1603.273h-1.92v-.716h1.92Z" transform="translate(-523.5 -1599.719)" fill="#999"/>
        <path id="Path_42" data-name="Path 42" d="M557.915,1600.6h-1.66v4.579h-.919V1600.6h-1.645v-.746h4.224Z" transform="translate(-523.5 -1599.719)" fill="#999"/>
        <path id="Path_43" data-name="Path 43" d="M559.944,1605.251a2.066,2.066,0,0,1-.79-.145,1.724,1.724,0,0,1-.595-.4,1.773,1.773,0,0,1-.377-.607,2.135,2.135,0,0,1-.131-.757v-.147a2.461,2.461,0,0,1,.138-.846,1.908,1.908,0,0,1,.381-.643,1.661,1.661,0,0,1,.568-.41,1.715,1.715,0,0,1,.705-.144,1.789,1.789,0,0,1,.749.144,1.42,1.42,0,0,1,.526.405,1.709,1.709,0,0,1,.311.617,2.874,2.874,0,0,1,.1.787v.379h-2.584a1.368,1.368,0,0,0,.1.425,1.045,1.045,0,0,0,.214.334,1,1,0,0,0,.32.222,1.033,1.033,0,0,0,.418.08,1.183,1.183,0,0,0,.573-.132,1.356,1.356,0,0,0,.422-.361l.479.456a1.568,1.568,0,0,1-.235.276,1.653,1.653,0,0,1-.33.238,1.83,1.83,0,0,1-.425.168A2.051,2.051,0,0,1,559.944,1605.251Zm-.1-3.39a.746.746,0,0,0-.591.257,1.327,1.327,0,0,0-.287.713h1.692v-.066a1.522,1.522,0,0,0-.056-.339.855.855,0,0,0-.141-.289.691.691,0,0,0-.247-.2A.837.837,0,0,0,559.839,1601.861Z" transform="translate(-523.5 -1599.719)" fill="#999"/>
        <path id="Path_44" data-name="Path 44" d="M564.293,1602.034c-.059-.01-.119-.018-.178-.023s-.121-.007-.185-.007a1,1,0,0,0-.523.124.764.764,0,0,0-.3.344v2.707h-.89v-3.957h.849l.022.443a1.164,1.164,0,0,1,.371-.38.972.972,0,0,1,.521-.136,1.042,1.042,0,0,1,.174.016.692.692,0,0,1,.14.034Z" transform="translate(-523.5 -1599.719)" fill="#999"/>
        <path id="Path_45" data-name="Path 45" d="M565.689,1601.222l.025.413a1.4,1.4,0,0,1,.481-.359,1.6,1.6,0,0,1,.661-.127,1.408,1.408,0,0,1,.648.144.967.967,0,0,1,.437.463,1.417,1.417,0,0,1,1.214-.607,1.68,1.68,0,0,1,.55.082.986.986,0,0,1,.407.259,1.184,1.184,0,0,1,.256.456,2.187,2.187,0,0,1,.089.668v2.565h-.888v-2.568a1.1,1.1,0,0,0-.05-.36.53.53,0,0,0-.142-.225.507.507,0,0,0-.223-.116,1.139,1.139,0,0,0-.294-.034.745.745,0,0,0-.5.163.865.865,0,0,0-.269.426c0,.012,0,.025,0,.038s0,.026,0,.039v2.637h-.888v-2.557a1.079,1.079,0,0,0-.05-.351.559.559,0,0,0-.142-.23.552.552,0,0,0-.226-.126,1.031,1.031,0,0,0-.3-.039.867.867,0,0,0-.47.117.788.788,0,0,0-.286.319v2.867h-.89v-3.957Z" transform="translate(-523.5 -1599.719)" fill="#999"/>
        <path id="Path_46" data-name="Path 46" d="M573.589,1604.1a.483.483,0,0,0-.032-.176.354.354,0,0,0-.122-.155.975.975,0,0,0-.258-.133,3.092,3.092,0,0,0-.433-.118,3.735,3.735,0,0,1-.58-.164,1.8,1.8,0,0,1-.448-.24,1.028,1.028,0,0,1-.29-.33.893.893,0,0,1-.105-.439,1.047,1.047,0,0,1,.106-.459,1.139,1.139,0,0,1,.3-.382,1.5,1.5,0,0,1,.484-.262,1.933,1.933,0,0,1,.634-.1,2.11,2.11,0,0,1,.664.1,1.5,1.5,0,0,1,.5.267,1.138,1.138,0,0,1,.42.9h-.889a.586.586,0,0,0-.043-.221.566.566,0,0,0-.132-.192.66.66,0,0,0-.218-.134.839.839,0,0,0-.3-.049.921.921,0,0,0-.293.042.671.671,0,0,0-.206.11.424.424,0,0,0-.122.157.44.44,0,0,0-.041.189.409.409,0,0,0,.037.175.334.334,0,0,0,.13.138,1.028,1.028,0,0,0,.25.116,3.98,3.98,0,0,0,.4.1,4.877,4.877,0,0,1,.616.172,1.773,1.773,0,0,1,.46.241.985.985,0,0,1,.288.336,1.022,1.022,0,0,1,.1.462,1.035,1.035,0,0,1-.113.483,1.137,1.137,0,0,1-.323.378,1.577,1.577,0,0,1-.507.247,2.325,2.325,0,0,1-.658.087,2.093,2.093,0,0,1-.719-.114,1.662,1.662,0,0,1-.524-.3,1.292,1.292,0,0,1-.321-.423,1.155,1.155,0,0,1-.107-.48h.863a.644.644,0,0,0,.084.306.6.6,0,0,0,.186.2.79.79,0,0,0,.256.112,1.194,1.194,0,0,0,.292.035.9.9,0,0,0,.535-.133A.415.415,0,0,0,573.589,1604.1Z" transform="translate(-523.5 -1599.719)" fill="#999"/>
      </g>
      <g id="Group_40" data-name="Group 40" transform="translate(4.084)">
        <g id="Group_38" data-name="Group 38" transform="translate(0 33.313)">
          <path id="Path_47" data-name="Path 47" d="M529.59,1587.13a1.936,1.936,0,0,0-.359-.031.871.871,0,0,0-.853.669v3.474h-.794v-4.857h.771l.014.493a.99.99,0,0,1,.9-.583.7.7,0,0,1,.315.064Z" transform="translate(-527.584 -1584.615)" fill="#999"/>
          <path id="Path_48" data-name="Path 48" d="M532.033,1591.332a1.771,1.771,0,0,1-1.392-.541,2.337,2.337,0,0,1-.494-1.588v-.587a2.745,2.745,0,0,1,.473-1.7,1.575,1.575,0,0,1,1.323-.617,1.514,1.514,0,0,1,1.275.544,2.788,2.788,0,0,1,.431,1.692v.52h-2.712v.112a1.769,1.769,0,0,0,.294,1.136,1.036,1.036,0,0,0,.846.355,1.377,1.377,0,0,0,.618-.132,1.532,1.532,0,0,0,.5-.42l.413.5A1.8,1.8,0,0,1,532.033,1591.332Zm-.09-4.356a.835.835,0,0,0-.732.34,2.025,2.025,0,0,0-.269,1.053h1.912v-.108a1.858,1.858,0,0,0-.248-.987A.77.77,0,0,0,531.943,1586.976Z" transform="translate(-527.584 -1584.615)" fill="#999"/>
          <path id="Path_49" data-name="Path 49" d="M538.812,1589.163a2.432,2.432,0,0,1-.59,1.61,2.005,2.005,0,0,1-1.516.559,1.877,1.877,0,0,1-1.563-.747,3.234,3.234,0,0,1-.579-2.026v-1.186a3.128,3.128,0,0,1,.6-2.016,1.96,1.96,0,0,1,1.622-.742,1.887,1.887,0,0,1,1.466.567,2.487,2.487,0,0,1,.564,1.621h-.831a2.017,2.017,0,0,0-.337-1.141,1.058,1.058,0,0,0-.862-.342,1.171,1.171,0,0,0-1.028.525,2.7,2.7,0,0,0-.359,1.532v1.2a2.857,2.857,0,0,0,.335,1.521,1.083,1.083,0,0,0,.976.531,1.18,1.18,0,0,0,.925-.32,2.01,2.01,0,0,0,.35-1.145Z" transform="translate(-527.584 -1584.615)" fill="#999"/>
          <path id="Path_50" data-name="Path 50" d="M542.972,1589.532h-2.209l-.507,1.71h-.843l2.1-6.536h.7l2.11,6.536h-.843Zm-1.993-.7h1.782l-.894-2.971Z" transform="translate(-527.584 -1584.615)" fill="#999"/>
          <path id="Path_51" data-name="Path 51" d="M546.043,1588.683v2.559h-.821v-6.536H547.3a1.887,1.887,0,0,1,1.432.546,2.329,2.329,0,0,1,.024,2.9,1.917,1.917,0,0,1-1.4.527Zm0-.7H547.3a1.064,1.064,0,0,0,.839-.329,1.372,1.372,0,0,0,.292-.94,1.411,1.411,0,0,0-.3-.944,1.027,1.027,0,0,0-.826-.355h-1.266Z" transform="translate(-527.584 -1584.615)" fill="#999"/>
          <path id="Path_52" data-name="Path 52" d="M554.138,1585.411h-1.72v5.831H551.6v-5.831h-1.714v-.7h4.256Z" transform="translate(-527.584 -1584.615)" fill="#999"/>
          <path id="Path_53" data-name="Path 53" d="M559.075,1589.163a2.432,2.432,0,0,1-.59,1.61,2.005,2.005,0,0,1-1.516.559,1.877,1.877,0,0,1-1.563-.747,3.234,3.234,0,0,1-.579-2.026v-1.186a3.128,3.128,0,0,1,.6-2.016,1.962,1.962,0,0,1,1.622-.742,1.886,1.886,0,0,1,1.466.567,2.482,2.482,0,0,1,.564,1.621h-.831a2,2,0,0,0-.337-1.141,1.057,1.057,0,0,0-.862-.342,1.171,1.171,0,0,0-1.028.525,2.7,2.7,0,0,0-.359,1.532v1.2a2.857,2.857,0,0,0,.335,1.521,1.084,1.084,0,0,0,.976.531,1.179,1.179,0,0,0,.925-.32,1.994,1.994,0,0,0,.35-1.145Z" transform="translate(-527.584 -1584.615)" fill="#999"/>
          <path id="Path_54" data-name="Path 54" d="M564.467,1591.242h-.826v-3.021H561.01v3.021h-.821v-6.536h.821v2.811h2.631v-2.811h.826Z" transform="translate(-527.584 -1584.615)" fill="#999"/>
          <path id="Path_55" data-name="Path 55" d="M569.018,1589.532h-2.209l-.507,1.71h-.844l2.1-6.536h.705l2.11,6.536h-.843Zm-1.993-.7h1.782l-.894-2.971Z" transform="translate(-527.584 -1584.615)" fill="#999"/>
        </g>
        <path id="Path_56" data-name="Path 56" d="M550.229,1557.744c-.1,0-.193.026-.292.03v4.6l-3.505-3.5a7,7,0,0,0-3.212,5.88h4.635l-3.607,3.607a6.992,6.992,0,0,0,12.992-3.607c0-.072-.019-.139-.021-.21H552.6l3.534-3.533A6.992,6.992,0,0,0,550.229,1557.744Z" transform="translate(-527.584 -1551.302)" fill="none"/>
        <g id="Group_39" data-name="Group 39" transform="translate(9.194)">
          <path id="Path_57" data-name="Path 57" d="M538.86,1551.3l2.962,2.961a13.422,13.422,0,0,0-5.044,10.492h6.442a7,7,0,0,1,3.212-5.88l3.505,3.5V1551.3Z" transform="translate(-536.778 -1551.302)" fill="#3a7df0"/>
          <path id="Path_58" data-name="Path 58" d="M560.758,1556.394a13.423,13.423,0,0,0-10.529-5.092c-.1,0-.194.013-.292.015v6.457c.1,0,.192-.03.292-.03a6.992,6.992,0,0,1,5.91,3.268l-3.534,3.533h11.077v-11.076Z" transform="translate(-536.778 -1551.302)" fill="#1a339f"/>
          <path id="Path_59" data-name="Path 59" d="M550.229,1571.765a6.983,6.983,0,0,1-5.981-3.4l3.607-3.607H536.778v11.076l2.836-2.835a13.425,13.425,0,0,0,21.2.043l-4.622-4.642A6.985,6.985,0,0,1,550.229,1571.765Z" transform="translate(-536.778 -1551.302)" fill="#aaa"/>
        </g>
      </g>
    </g>
  </g>
</svg>
