<svg xmlns="http://www.w3.org/2000/svg" width="53.9" height="54" viewBox="0 0 53.9 54">
  <g id="cctv-camera" transform="translate(1 1)">
    <path id="Path_3438" data-name="Path 3438" d="M282.142,406h22.984v6.473H281.979" transform="translate(-253.226 -363.817)" fill="none" stroke="#073648" stroke-linecap="round" stroke-linejoin="round" stroke-width="2"/>
    <path id="Path_3439" data-name="Path 3439" d="M21.157,162.614a12.731,12.731,0,0,1-3.918-4.3c-2.43-4.209-2.356-8.8.166-10.257a3.571,3.571,0,0,1,2.148-.39" transform="translate(-15.463 -133.338)" fill="none" stroke="#073648" stroke-linecap="round" stroke-linejoin="round" stroke-width="2"/>
    <path id="Path_3440" data-name="Path 3440" d="M151.517,265.58a8.4,8.4,0,0,1-8.385,7.867H116.685" transform="translate(-105.765 -238.547)" fill="none" stroke="#073648" stroke-linecap="round" stroke-linejoin="round" stroke-width="2"/>
    <path id="Path_3441" data-name="Path 3441" d="M76.325,191.064a12.678,12.678,0,0,1,.114,1.7c0,4.64-2.479,8.4-5.536,8.4s-5.536-3.761-5.536-8.4c0-4.019,1.86-7.379,4.345-8.206" transform="translate(-59.982 -166.269)" fill="none" stroke="#073648" stroke-linecap="round" stroke-linejoin="round" stroke-width="2"/>
    <path id="Path_3442" data-name="Path 3442" d="M92.554,159.794l-22.4.194a16.311,16.311,0,0,1-13.345-6.812c-1.968-2.722-4.576-5.208-7.588-5.894H85.609a8.7,8.7,0,0,1,8.7,8.7v2.046A1.768,1.768,0,0,1,92.554,159.794Z" transform="translate(-45.581 -133.01)" fill="none" stroke="#073648" stroke-linecap="round" stroke-linejoin="round" stroke-width="2"/>
    <g id="Group_4565" data-name="Group 4565" transform="translate(15.626)">
      <path id="Path_3443" data-name="Path 3443" d="M160.3,18.14a13.727,13.727,0,0,1,17.474,0" transform="translate(-160.303 -15)" fill="none" stroke="#073648" stroke-linecap="round" stroke-linejoin="round" stroke-width="2"/>
      <path id="Path_3444" data-name="Path 3444" d="M204.429,76.192a7.233,7.233,0,0,1,7.953,0" transform="translate(-199.669 -68.527)" fill="none" stroke="#073648" stroke-linecap="round" stroke-linejoin="round" stroke-width="2"/>
    </g>
    <path id="Path_3445" data-name="Path 3445" d="M203.639,355.6h0a4.553,4.553,0,0,1-4.553-4.553V338.5h9.106v12.546A4.553,4.553,0,0,1,203.639,355.6Z" transform="translate(-179.276 -303.602)" fill="none" stroke="#073648" stroke-linecap="round" stroke-linejoin="round" stroke-width="2"/>
    <line id="Line_455" data-name="Line 455" transform="translate(24.363 45.472)" fill="none" stroke="#073648" stroke-linecap="round" stroke-linejoin="round" stroke-width="2"/>
  </g>
</svg>
