<svg xmlns="http://www.w3.org/2000/svg" width="45.153" height="54" viewBox="0 0 45.153 54">
  <g id="Group_4566" data-name="Group 4566" transform="translate(1 1)">
    <g id="g2503" transform="translate(16.183 8.846)">
      <path id="path2505" d="M-196.071-490.178H-210.1a3.237,3.237,0,0,1-3.237-3.237v-29.668a10.249,10.249,0,0,1,10.249-10.249,10.249,10.249,0,0,1,10.249,10.249v29.668A3.237,3.237,0,0,1-196.071-490.178Z" transform="translate(213.333 533.332)" fill="none" stroke="#073648" stroke-linecap="round" stroke-linejoin="round" stroke-width="2"/>
    </g>
    <g id="g2507" transform="translate(0 20.714)">
      <path id="path2509" d="M-98.036-220.58h-8.631L-104.509-240h4.315Z" transform="translate(106.666 239.999)" fill="none" stroke="#073648" stroke-linecap="round" stroke-linejoin="round" stroke-width="2"/>
    </g>
    <g id="g2511" transform="translate(4.315 3.452)">
      <path id="path2513" d="M0-196.071V-204.7a8.631,8.631,0,0,1,8.631-8.631H18.88" transform="translate(0 213.333)" fill="none" stroke="#073648" stroke-linecap="round" stroke-linejoin="round" stroke-width="2"/>
    </g>
    <path id="path2515" d="M368.691-390.483H354.666v-16.183h14.025Z" transform="translate(-332.01 427.379)" fill="none" stroke="#073648" stroke-linecap="round" stroke-linejoin="round" stroke-width="2"/>
    <g id="g2517" transform="translate(16.182 45.527)">
      <path id="path2519" d="M-232.835,0h-20.5" transform="translate(253.333)" fill="none" stroke="#073648" stroke-linecap="round" stroke-linejoin="round" stroke-width="2"/>
    </g>
    <g id="g2521" transform="translate(29.668 3.452)">
      <path id="path2523" d="M-140.926-85.781h0a14.894,14.894,0,0,0-9.36-6.835l-3.047-.717h13.485" transform="translate(153.333 93.333)" fill="none" stroke="#073648" stroke-linecap="round" stroke-linejoin="round" stroke-width="2"/>
    </g>
    <g id="g2525" transform="translate(23.195)">
      <path id="path2527" d="M-73.527-106.417v-6.132a3.237,3.237,0,0,0-3.237-3.237A3.237,3.237,0,0,0-80-112.549v6.132" transform="translate(80 115.785)" fill="none" stroke="#073648" stroke-linecap="round" stroke-linejoin="round" stroke-width="2"/>
    </g>
  </g>
</svg>
