<svg xmlns="http://www.w3.org/2000/svg" width="45.34" height="66" viewBox="0 0 45.34 66">
  <g id="Group_4570" data-name="Group 4570" transform="translate(1 1)">
    <path id="path3631" d="M-189.444,0V44.832H-209.7" transform="translate(221.02 14.511)" fill="none" stroke="#073648" stroke-linecap="round" stroke-linejoin="round" stroke-width="2"/>
    <g id="g3641">
      <path id="path3643" d="M-61.258-555.1h-6.549v-57.149a2.193,2.193,0,0,1,2.194-2.194h27.189a2.194,2.194,0,0,1,2.194,2.194v4.958" transform="translate(67.806 614.446)" fill="none" stroke="#073648" stroke-linecap="round" stroke-linejoin="round" stroke-width="2"/>
    </g>
    <g id="g3645" transform="translate(0 23.636)">
      <path id="path3647" d="M0,0H31.576" fill="none" stroke="#073648" stroke-linecap="round" stroke-linejoin="round" stroke-width="2"/>
    </g>
    <g id="g3649" transform="translate(0 59.343)">
      <path id="path3651" d="M-61.258,0h-6.549V3.141a1.515,1.515,0,0,0,1.516,1.516h2.121a1.515,1.515,0,0,0,1.4-.945Z" transform="translate(67.806)" fill="none" stroke="#073648" stroke-linecap="round" stroke-linejoin="round" stroke-width="2"/>
    </g>
    <g id="g3653" transform="translate(25.027 59.343)">
      <path id="path3655" d="M0,0H6.549V3.141A1.515,1.515,0,0,1,5.033,4.657H2.912a1.515,1.515,0,0,1-1.4-.945Z" fill="none" stroke="#073648" stroke-linecap="round" stroke-linejoin="round" stroke-width="2"/>
    </g>
    <g id="g3657" transform="translate(4.473 8.749)">
      <path id="path3659" d="M-17.3-87.58h0a1.849,1.849,0,0,1-1.849-1.849v-5.664A1.849,1.849,0,0,1-17.3-96.942a1.849,1.849,0,0,1,1.849,1.849v5.664A1.85,1.85,0,0,1-17.3-87.58Z" transform="translate(19.148 96.942)" fill="none" stroke="#073648" stroke-linecap="round" stroke-linejoin="round" stroke-width="2"/>
    </g>
    <g id="g3661" transform="translate(4.473 27.917)">
      <path id="path3663" d="M-17.3-87.58h0a1.849,1.849,0,0,1-1.849-1.849v-5.664A1.849,1.849,0,0,1-17.3-96.942a1.849,1.849,0,0,1,1.849,1.849v5.664A1.849,1.849,0,0,1-17.3-87.58Z" transform="translate(19.148 96.942)" fill="none" stroke="#073648" stroke-linecap="round" stroke-linejoin="round" stroke-width="2"/>
    </g>
    <g id="g3665" transform="translate(31.576 11.872)">
      <path id="path3667" d="M0,0V23.527" fill="none" stroke="#073648" stroke-linecap="round" stroke-linejoin="round" stroke-width="2"/>
    </g>
    <g id="g3669" transform="translate(29.343 31.395)">
      <path id="path3671" d="M0-20.886l2.233-2.233,2.233,2.233" transform="translate(0 23.119)" fill="none" stroke="#073648" stroke-linecap="round" stroke-linejoin="round" stroke-width="2"/>
    </g>
    <g id="g3673" transform="translate(29.343 14.146)">
      <path id="path3675" d="M-41.773,0l-2.233,2.233L-46.239,0" transform="translate(46.239)" fill="none" stroke="#073648" stroke-linecap="round" stroke-linejoin="round" stroke-width="2"/>
    </g>
    <g id="g3677" transform="translate(19.812 23.636)">
      <path id="path3679" d="M-220.079,0h-23.527" transform="translate(243.606)" fill="none" stroke="#073648" stroke-linecap="round" stroke-linejoin="round" stroke-width="2"/>
    </g>
    <g id="g3681" transform="translate(21.583 21.403)">
      <path id="path3683" d="M0,0,2.233,2.233,0,4.466" fill="none" stroke="#073648" stroke-linecap="round" stroke-linejoin="round" stroke-width="2"/>
    </g>
    <g id="g3685" transform="translate(38.832 21.403)">
      <path id="path3687" d="M-20.886-41.772-23.119-44l2.233-2.233" transform="translate(23.119 46.237)" fill="none" stroke="#073648" stroke-linecap="round" stroke-linejoin="round" stroke-width="2"/>
    </g>
    <g id="g3689" transform="translate(23.421 15.154)">
      <path id="path3691" d="M-155.618,0l-16.636,16.636" transform="translate(172.254)" fill="none" stroke="#073648" stroke-linecap="round" stroke-linejoin="round" stroke-width="2"/>
    </g>
    <g id="g3693" transform="translate(23.094 28.959)">
      <path id="path3695" d="M0,0H3.158V3.158" fill="none" stroke="#073648" stroke-linecap="round" stroke-linejoin="round" stroke-width="2"/>
    </g>
    <g id="g3697" transform="translate(36.87 15.184)">
      <path id="path3699" d="M-29.537-29.537h-3.158v-3.158" transform="translate(32.695 32.695)" fill="none" stroke="#073648" stroke-linecap="round" stroke-linejoin="round" stroke-width="2"/>
    </g>
    <g id="g3701" transform="translate(23.421 15.481)">
      <path id="path3703" d="M-155.618-155.619l-16.636-16.636" transform="translate(172.254 172.256)" fill="none" stroke="#073648" stroke-linecap="round" stroke-linejoin="round" stroke-width="2"/>
    </g>
    <g id="g3705" transform="translate(23.094 15.154)">
      <path id="path3707" d="M-29.537,0V3.158h-3.158" transform="translate(32.695)" fill="none" stroke="#073648" stroke-linecap="round" stroke-linejoin="round" stroke-width="2"/>
    </g>
    <g id="g3709" transform="translate(36.87 28.93)">
      <path id="path3711" d="M0-29.537v-3.158H3.158" transform="translate(0 32.695)" fill="none" stroke="#073648" stroke-linecap="round" stroke-linejoin="round" stroke-width="2"/>
    </g>
    <g id="g3713" transform="translate(6.42 37.28)">
      <path id="path3715" d="M0-40.077v-4.284" transform="translate(0 44.361)" fill="none" stroke="#073648" stroke-linecap="round" stroke-linejoin="round" stroke-width="2"/>
    </g>
  </g>
</svg>
