<svg xmlns="http://www.w3.org/2000/svg" width="56.007" height="43.985" viewBox="0 0 56.007 43.985">
  <g id="Icon" transform="translate(-3.997 -10.001)">
    <path id="Path_3427" data-name="Path 3427" d="M59.4,21.749l-27-11.667a1.008,1.008,0,0,0-.792,0L4.6,21.706a1,1,0,0,0,0,1.836l7.615,3.3V40.167a1,1,0,0,0,.554.9,42.878,42.878,0,0,0,38.456,0,1,1,0,0,0,.554-.9V26.875l.671-.29a3.632,3.632,0,0,1,.874,2.362V45H51.956a1,1,0,0,0-.986.835l-.6,3.548a3.948,3.948,0,0,0,.883,3.206,4.02,4.02,0,0,0,6.093,0,3.947,3.947,0,0,0,.882-3.207l-.594-3.548A1,1,0,0,0,56.652,45H55.327V28.947a5.621,5.621,0,0,0-.987-3.177l5.06-2.185a1,1,0,0,0,0-1.836ZM56.261,49.713a1.958,1.958,0,0,1-.437,1.585,2.06,2.06,0,0,1-3.04,0,1.951,1.951,0,0,1-.436-1.584L52.8,47h3ZM49.782,39.542a40.858,40.858,0,0,1-35.564,0V27.711L31.6,35.25a.975.975,0,0,0,.4.083.986.986,0,0,0,.4-.082l17.386-7.512ZM52.8,24.255a5.692,5.692,0,0,0-2.656-.951L32.09,21.671a1,1,0,1,0-.18,1.992s18.256,1.671,18.356,1.688L32,33.243,7.521,22.628,32,12.089,56.48,22.667Z" fill="#073648"/>
  </g>
</svg>
