<svg xmlns="http://www.w3.org/2000/svg" width="25.63" height="35.512" viewBox="0 0 25.63 35.512">
  <g id="location" transform="translate(-15.264 -8.742)">
    <g id="LWPOLYLINE_37_" transform="translate(17.553 23.952)">
      <g id="Group_4488" data-name="Group 4488" transform="translate(0)">
        <path id="Path_3428" data-name="Path 3428" d="M28.7,44.709a.761.761,0,0,1-.714-.5c-1.033-2.816-2.917-5.073-4.911-7.462a30.374,30.374,0,0,1-4.822-7.035A.761.761,0,0,1,19.65,29.1a28.8,28.8,0,0,0,4.6,6.673c1.989,2.384,4.046,4.848,5.171,7.912a.76.76,0,0,1-.452.976A.78.78,0,0,1,28.7,44.709Z" transform="translate(-18.193 -28.647)" stroke="#000" stroke-width="0.5"/>
      </g>
    </g>
    <g id="LWPOLYLINE_36_" transform="translate(27.304 23.952)">
      <g id="Group_4489" data-name="Group 4489">
        <path id="Path_3429" data-name="Path 3429" d="M31.767,44.709a.762.762,0,0,1-.715-1.024c1.125-3.064,3.182-5.529,5.171-7.912a28.788,28.788,0,0,0,4.6-6.673.761.761,0,1,1,1.393.613,30.351,30.351,0,0,1-4.822,7.035c-1.994,2.389-3.877,4.645-4.911,7.462a.76.76,0,0,1-.714.5Z" transform="translate(-31.006 -28.646)" stroke="#000" stroke-width="0.5"/>
      </g>
    </g>
    <g id="CIRCLE_37_" transform="translate(21.977 14.333)">
      <g id="Group_4490" data-name="Group 4490" transform="translate(0 0)">
        <path id="Path_3430" data-name="Path 3430" d="M30.094,28.182a6.088,6.088,0,1,1,6.088-6.088A6.169,6.169,0,0,1,30.094,28.182Zm0-10.654a4.566,4.566,0,1,0,4.566,4.566A4.628,4.628,0,0,0,30.094,17.528Z" transform="translate(-24.006 -16.006)" stroke="#000" stroke-width="0.5"/>
      </g>
    </g>
    <g id="ARC_203_" transform="translate(16.671 9.004)">
      <g id="Group_4491" data-name="Group 4491">
        <path id="Path_3431" data-name="Path 3431" d="M38.178,25.474a.761.761,0,0,1-.7-1.068,9.762,9.762,0,0,0-.568-8.933,9.761,9.761,0,0,0-7.491-4.9A9.893,9.893,0,0,0,19.373,24.406a.761.761,0,0,1-1.393.613,11.416,11.416,0,0,1,11.6-15.96,11.267,11.267,0,0,1,8.652,5.647,11.269,11.269,0,0,1,.646,10.313.762.762,0,0,1-.7.454Z" transform="translate(-17.034 -9.004)" stroke="#000" stroke-width="0.5"/>
      </g>
    </g>
    <g id="LWPOLYLINE_35_" transform="translate(15.517 35.106)">
      <g id="Group_4492" data-name="Group 4492">
        <path id="Path_3432" data-name="Path 3432" d="M28.1,52.2a26.109,26.109,0,0,1-8.661-1.223c-1.136-.406-4.593-1.643-3.807-4.182a3.58,3.58,0,0,1,1.674-1.892,14.089,14.089,0,0,1,4.337-1.581.761.761,0,1,1,.339,1.483A12.543,12.543,0,0,0,18.1,46.2a2.209,2.209,0,0,0-1.019,1.046c-.235.76.729,1.534,2.867,2.3a26.381,26.381,0,0,0,9.067,1.126A19.354,19.354,0,0,0,37.491,49c.587-.3,1.907-1.081,1.491-1.9-.689-1.358-3.042-1.889-4.6-2.241l-.236-.053a.761.761,0,1,1,.339-1.483l.232.053c1.835.414,4.608,1.041,5.621,3.036.719,1.418-.087,2.893-2.158,3.947A20.789,20.789,0,0,1,29.042,52.2C28.739,52.2,28.424,52.2,28.1,52.2Z" transform="translate(-15.517 -43.304)" stroke="#000" stroke-width="0.5"/>
      </g>
    </g>
  </g>
</svg>
