<svg xmlns="http://www.w3.org/2000/svg" width="38.724" height="34" viewBox="0 0 38.724 34">
  <g id="Group_4596" data-name="Group 4596" transform="translate(-1019.927 -1345.563)">
    <g id="g349" transform="translate(1030.146 1346.563)">
      <path id="path351" d="M-301.713-477.713a3.048,3.048,0,0,1-3.048,3.048h-12.19A3.048,3.048,0,0,1-320-477.713v-25.9a3.048,3.048,0,0,1,3.048-3.048h12.19a3.048,3.048,0,0,1,3.048,3.048Z" transform="translate(319.999 506.665)" fill="none" stroke="#efa502" stroke-linecap="round" stroke-linejoin="round" stroke-miterlimit="10" stroke-width="2"/>
    </g>
    <g id="g353" transform="translate(1037.765 1373.992)">
      <path id="path355" d="M-50.286,0h-3.048" transform="translate(53.333 0)" fill="none" stroke="#efa502" stroke-linecap="round" stroke-linejoin="round" stroke-miterlimit="10" stroke-width="2"/>
    </g>
    <g id="g357" transform="translate(1037.765 1351.135)">
      <path id="path359" d="M-50.286,0h-3.048" transform="translate(53.333 0)" fill="none" stroke="#efa502" stroke-linecap="round" stroke-linejoin="round" stroke-miterlimit="10" stroke-width="2"/>
    </g>
    <g id="g361" transform="translate(1056.127 1355.706)">
      <path id="path363" d="M-.019,0A14.8,14.8,0,0,1,1.5,6.856,14.8,14.8,0,0,1-.02,13.714" transform="translate(0.02)" fill="none" stroke="#efa502" stroke-linecap="round" stroke-linejoin="round" stroke-miterlimit="10" stroke-width="2"/>
    </g>
    <g id="g365" transform="translate(1052.318 1357.992)">
      <path id="path367" d="M-.014,0A8.974,8.974,0,0,1,1.128,4.571,8.975,8.975,0,0,1-.015,9.143" transform="translate(0.015)" fill="none" stroke="#efa502" stroke-linecap="round" stroke-linejoin="round" stroke-miterlimit="10" stroke-width="2"/>
    </g>
    <g id="g369" transform="translate(1020.927 1355.706)">
      <path id="path371" d="M-25.124,0a14.8,14.8,0,0,0-1.523,6.856,14.8,14.8,0,0,0,1.524,6.858" transform="translate(26.647)" fill="none" stroke="#efa502" stroke-linecap="round" stroke-linejoin="round" stroke-miterlimit="10" stroke-width="2"/>
    </g>
    <g id="g373" transform="translate(1025.117 1357.992)">
      <path id="path375" d="M-18.843,0a8.974,8.974,0,0,0-1.142,4.571,8.974,8.974,0,0,0,1.143,4.572" transform="translate(19.985)" fill="none" stroke="#efa502" stroke-linecap="round" stroke-linejoin="round" stroke-miterlimit="10" stroke-width="2"/>
    </g>
  </g>
</svg>
