<svg xmlns="http://www.w3.org/2000/svg" width="41.983" height="40.319" viewBox="0 0 41.983 40.319">
  <g id="Group_4450" data-name="Group 4450" transform="translate(-1300.2 -1687.854)">
    <g id="g25" transform="translate(1307.636 1693.063)">
      <path id="path27" d="M0-33.627a19.424,19.424,0,0,1,2.241-2.182" transform="translate(0 35.809)" fill="none" stroke="#073648" stroke-width="1.6"/>
    </g>
    <g id="g29" transform="translate(1303.347 1697.767)">
      <path id="path31" d="M0-90.459a19.3,19.3,0,0,1,2.423-5.87" transform="translate(0 96.329)" fill="none" stroke="#073648" stroke-width="1.6"/>
    </g>
    <g id="g33" transform="translate(1302.853 1707.337)">
      <path id="path35" d="M-106.386-239.252a19.356,19.356,0,0,1-6.9-14.85q0-.34.012-.677" transform="translate(113.29 254.778)" fill="none" stroke="#073648" stroke-width="1.6"/>
    </g>
    <g id="g37" transform="translate(1312.811 1724.952)">
      <path id="path39" d="M-287.272,0a19.106,19.106,0,0,1-9.336,2.421A19.1,19.1,0,0,1-305.915.016" transform="translate(305.915)" fill="none" stroke="#073648" stroke-width="1.6"/>
    </g>
    <g id="g41" transform="translate(1334.498 1697.746)">
      <path id="path43" d="M-60.961,0a19.338,19.338,0,0,1,2.929,10.267A19.356,19.356,0,0,1-64.917,25.1" transform="translate(64.917)" fill="none" stroke="#073648" stroke-width="1.6"/>
    </g>
    <g id="g45" transform="translate(1334.188 1692.923)">
      <path id="path47" d="M0,0A19.424,19.424,0,0,1,2.009,1.874" fill="none" stroke="#073648" stroke-width="1.6"/>
    </g>
    <g id="g49" transform="translate(1312.931 1688.654)">
      <path id="path51" d="M0-36.037a19.106,19.106,0,0,1,9.187-2.339,19.107,19.107,0,0,1,8.976,2.225" transform="translate(0 38.376)" fill="none" stroke="#073648" stroke-width="1.6"/>
    </g>
    <g id="g53" transform="translate(1323.732 1692.301)">
      <path id="path55" d="M0-48.08A27.125,27.125,0,0,1,7.129-51.2" transform="translate(0 51.2)" fill="none" stroke="#073648" stroke-width="1.6"/>
    </g>
    <g id="g57" transform="translate(1315.837 1697.578)">
      <path id="path59" d="M0-81.8a27.425,27.425,0,0,1,4.9-5.308" transform="translate(0 87.105)" fill="none" stroke="#073648" stroke-width="1.6"/>
    </g>
    <g id="g61" transform="translate(1310.815 1706.076)">
      <path id="path63" d="M-3.153-246.242a27.416,27.416,0,0,1,2.88-15.98" transform="translate(3.357 262.222)" fill="none" stroke="#073648" stroke-width="1.6"/>
    </g>
    <g id="g65" transform="translate(1313.115 1692.231)">
      <path id="path67" d="M-113.878-49.169a27.135,27.135,0,0,0-7.39-3.191" transform="translate(121.268 52.36)" fill="none" stroke="#073648" stroke-width="1.6"/>
    </g>
    <g id="g69" transform="translate(1323.496 1697.578)">
      <path id="path71" d="M-116.347-153.636a27.508,27.508,0,0,0-7.55-9.97" transform="translate(123.897 163.606)" fill="none" stroke="#073648" stroke-width="1.6"/>
    </g>
    <g id="g73" transform="translate(1332.326 1711.039)">
      <path id="path75" d="M-12.339-56.427a27.432,27.432,0,0,0-.8-3.662" transform="translate(13.14 60.089)" fill="none" stroke="#073648" stroke-width="1.6"/>
    </g>
    <g id="g77" transform="translate(1333.205 1718.276)">
      <path id="path79" d="M0-59.66a27.651,27.651,0,0,0,.213-3.872" transform="translate(0 63.532)" fill="none" stroke="#073648" stroke-width="1.6"/>
    </g>
    <g id="g81" transform="translate(1304.648 1704.093)">
      <path id="path83" d="M-129.561-.007a37.3,37.3,0,0,0-8.408.919" transform="translate(137.969 0.008)" fill="none" stroke="#073648" stroke-width="1.6"/>
    </g>
    <g id="g85" transform="translate(1316.748 1704.297)">
      <path id="path87" d="M-206.388-62.6a37.276,37.276,0,0,0-13.394-4.063" transform="translate(219.782 66.664)" fill="none" stroke="#073648" stroke-width="1.6"/>
    </g>
    <g id="g89" transform="translate(1333.336 1710.241)">
      <path id="path91" d="M-100.037-83.277a37.554,37.554,0,0,0-6.492-5.4" transform="translate(106.529 88.681)" fill="none" stroke="#073648" stroke-width="1.6"/>
    </g>
    <g id="g93" transform="translate(1332.683 1698.103)">
      <path id="path95" d="M0-147.2a37.46,37.46,0,0,0,4.221-9.553" transform="translate(0 156.757)" fill="none" stroke="#073648" stroke-width="1.6"/>
    </g>
    <g id="g97" transform="translate(1313.056 1710.701)">
      <path id="path99" d="M0-194.742a37.559,37.559,0,0,0,17.521-12.638" transform="translate(0 207.379)" fill="none" stroke="#073648" stroke-width="1.6"/>
    </g>
    <g id="g101" transform="translate(1320.266 1694.474)">
      <path id="path103" d="M-28.549-57.376A1.859,1.859,0,0,1-30.4-59.238,1.859,1.859,0,0,1-28.549-61.1,1.859,1.859,0,0,1-26.7-59.238,1.859,1.859,0,0,1-28.549-57.376Z" transform="translate(30.401 61.1)" fill="none" stroke="#073648" stroke-width="1.6"/>
    </g>
    <g id="g105" transform="translate(1313.056 1702.654)">
      <path id="path107" d="M-28.549-57.378A1.859,1.859,0,0,1-30.4-59.239,1.859,1.859,0,0,1-28.549-61.1,1.859,1.859,0,0,1-26.7-59.239,1.859,1.859,0,0,1-28.549-57.378Z" transform="translate(30.401 61.101)" fill="none" stroke="#073648" stroke-width="1.6"/>
    </g>
    <g id="g109" transform="translate(1329.905 1707.406)">
      <path id="path111" d="M-28.549-57.378A1.859,1.859,0,0,1-30.4-59.239,1.859,1.859,0,0,1-28.549-61.1,1.859,1.859,0,0,1-26.7-59.239,1.859,1.859,0,0,1-28.549-57.378Z" transform="translate(30.401 61.101)" fill="none" stroke="#073648" stroke-width="1.6"/>
    </g>
    <g id="g113" transform="translate(1309.445 1722.035)">
      <path id="path115" d="M-28.549-57.376A1.859,1.859,0,0,1-30.4-59.238,1.859,1.859,0,0,1-28.549-61.1,1.859,1.859,0,0,1-26.7-59.238,1.859,1.859,0,0,1-28.549-57.376Z" transform="translate(30.401 61.1)" fill="none" stroke="#073648" stroke-width="1.6"/>
    </g>
    <g id="g117" transform="translate(1331.193 1722.141)">
      <path id="path119" d="M-28.549-57.378A1.859,1.859,0,0,1-30.4-59.239,1.859,1.859,0,0,1-28.549-61.1,1.859,1.859,0,0,1-26.7-59.239,1.859,1.859,0,0,1-28.549-57.378Z" transform="translate(30.401 61.101)" fill="none" stroke="#073648" stroke-width="1.6"/>
    </g>
    <g id="g121" transform="translate(1335.513 1694.379)">
      <path id="path123" d="M-28.55-57.378A1.859,1.859,0,0,1-30.4-59.239,1.859,1.859,0,0,1-28.55-61.1,1.859,1.859,0,0,1-26.7-59.239,1.859,1.859,0,0,1-28.55-57.378Z" transform="translate(30.403 61.101)" fill="none" stroke="#073648" stroke-width="1.6"/>
    </g>
    <g id="g125" transform="translate(1330.81 1690.007)">
      <path id="path127" d="M-28.549-57.376A1.859,1.859,0,0,1-30.4-59.238,1.859,1.859,0,0,1-28.549-61.1,1.859,1.859,0,0,1-26.7-59.238,1.859,1.859,0,0,1-28.549-57.376Z" transform="translate(30.401 61.1)" fill="none" stroke="#073648" stroke-width="1.6"/>
    </g>
    <g id="g129" transform="translate(1309.445 1690.007)">
      <path id="path131" d="M-28.549-57.376A1.859,1.859,0,0,1-30.4-59.238,1.859,1.859,0,0,1-28.549-61.1,1.859,1.859,0,0,1-26.7-59.238,1.859,1.859,0,0,1-28.549-57.376Z" transform="translate(30.401 61.1)" fill="none" stroke="#073648" stroke-width="1.6"/>
    </g>
    <g id="g133" transform="translate(1301 1703.613)">
      <path id="path135" d="M-28.549-57.376A1.859,1.859,0,0,1-30.4-59.238,1.859,1.859,0,0,1-28.549-61.1,1.859,1.859,0,0,1-26.7-59.238,1.859,1.859,0,0,1-28.549-57.376Z" transform="translate(30.401 61.1)" fill="none" stroke="#073648" stroke-width="1.6"/>
    </g>
  </g>
</svg>
