<svg id="Group_1918" data-name="Group 1918" xmlns="http://www.w3.org/2000/svg" width="42" height="42" viewBox="0 0 42 42">
  <circle id="Ellipse_23" data-name="Ellipse 23" cx="21" cy="21" r="21" fill="#f7f7f7"/>
  <path id="Path_871" data-name="Path 871" d="M618.454,394.588a1.467,1.467,0,0,1,1.587,1.044c.607,1.454,1.31,2.868,1.969,4.3a.948.948,0,0,1-.229,1.3c-.441.447-.891.885-1.33,1.335a.892.892,0,0,0-.124,1.337,30.3,30.3,0,0,0,6.759,6.764.892.892,0,0,0,1.338-.1c.46-.45.908-.914,1.368-1.364a.941.941,0,0,1,1.27-.219c1.546.711,3.088,1.432,4.637,2.136a1.074,1.074,0,0,1,.676.984c.177,2.7-1.357,4.193-4.023,3.946a13.671,13.671,0,0,1-6.258-2.477,27.9,27.9,0,0,1-10.1-11.274,10.535,10.535,0,0,1-1.049-3.677c-.157-1.852.543-3.443,2.4-3.871C617.705,394.673,618.083,394.643,618.454,394.588Z" transform="translate(-604.923 -384.584)" fill="#063142" fill-rule="evenodd"/>
</svg>
