<svg xmlns="http://www.w3.org/2000/svg" width="36.855" height="44" viewBox="0 0 36.855 44">
  <g id="Group_4692" data-name="Group 4692" transform="translate(1 1)">
    <path id="path4170" d="M-211.853-105.926a7.407,7.407,0,0,1-7.407,7.407,7.407,7.407,0,0,1-7.407-7.407,7.407,7.407,0,0,1,7.407-7.407A7.407,7.407,0,0,1-211.853-105.926Z" transform="translate(236.687 113.333)" fill="none" stroke="#fdb813" stroke-linecap="round" stroke-linejoin="round" stroke-width="2"/>
    <path id="path4174" d="M-31.155-87.234h-1.307a.871.871,0,0,1-.871-.871v-4.357a.871.871,0,0,1,.871-.871h1.307a3.05,3.05,0,0,1,3.05,3.05A3.05,3.05,0,0,1-31.155-87.234Z" transform="translate(62.96 117.731)" fill="none" stroke="#fdb813" stroke-linecap="round" stroke-linejoin="round" stroke-width="2"/>
    <path id="path4178" d="M-43.617-87.234h1.307a.871.871,0,0,0,.871-.871v-4.357a.871.871,0,0,0-.871-.871h-1.307a3.05,3.05,0,0,0-3.05,3.05A3.05,3.05,0,0,0-43.617-87.234Z" transform="translate(46.667 117.731)" fill="none" stroke="#fdb813" stroke-linecap="round" stroke-linejoin="round" stroke-width="2"/>
    <path id="path4182" d="M-303.681-70.172A13.91,13.91,0,0,0-314.3-75.078a13.91,13.91,0,0,0-10.617,4.907" transform="translate(331.725 89.892)" fill="none" stroke="#fdb813" stroke-linecap="round" stroke-linejoin="round" stroke-width="2"/>
    <path id="path4186" d="M-199.391-84.741v-5.925l-13.942,5.228v18.3l13.942-5.228v-6.274" transform="translate(230.76 109.14)" fill="none" stroke="#fdb813" stroke-linecap="round" stroke-linejoin="round" stroke-width="2"/>
    <path id="path4190" d="M0-171.975v6.274l13.942,5.228v-18.3L0-184v5.925" transform="translate(3.486 202.473)" fill="none" stroke="#fdb813" stroke-linecap="round" stroke-linejoin="round" stroke-width="2"/>
  </g>
</svg>
