<svg xmlns="http://www.w3.org/2000/svg" width="46.873" height="46.873" viewBox="0 0 46.873 46.873">
  <g id="research" transform="translate(-0.001)">
    <g id="Group_4452" data-name="Group 4452" transform="translate(0.001)">
      <g id="Group_4451" data-name="Group 4451">
        <path id="Path_3395" data-name="Path 3395" d="M36.132,0H2.931A2.93,2.93,0,0,0,0,2.93V26.366a2.93,2.93,0,0,0,2.93,2.93H15.625V27.342H2.931a.977.977,0,0,1-.977-.977V2.93a.977.977,0,0,1,.977-.977h33.2a.977.977,0,0,1,.977.977V20.507h1.953V2.93A2.93,2.93,0,0,0,36.132,0Z" transform="translate(-0.001)" fill="#073648"/>
      </g>
    </g>
    <g id="Group_4454" data-name="Group 4454" transform="translate(11.719 28.319)">
      <g id="Group_4453" data-name="Group 4453">
        <rect id="Rectangle_1070" data-name="Rectangle 1070" width="1.953" height="5.859" fill="#073648"/>
      </g>
    </g>
    <g id="Group_4456" data-name="Group 4456" transform="translate(3.907 20.507)">
      <g id="Group_4455" data-name="Group 4455">
        <path id="Path_3396" data-name="Path 3396" d="M45.6,226.93a.977.977,0,0,1-.977-.977V224H42.668v1.953a2.93,2.93,0,0,0,2.93,2.93h1.953V226.93Z" transform="translate(-42.668 -224)" fill="#073648"/>
      </g>
    </g>
    <g id="Group_4458" data-name="Group 4458" transform="translate(3.907 16.601)">
      <g id="Group_4457" data-name="Group 4457">
        <rect id="Rectangle_1071" data-name="Rectangle 1071" width="1.953" height="1.953" fill="#073648"/>
      </g>
    </g>
    <g id="Group_4460" data-name="Group 4460" transform="translate(17.577 17.576)">
      <g id="Group_4459" data-name="Group 4459">
        <path id="Path_3397" data-name="Path 3397" d="M210.1,195.1a10.61,10.61,0,1,0,0,15A10.61,10.61,0,0,0,210.1,195.1Zm-7.508,16.159a8.657,8.657,0,1,1,8.66-8.654A8.657,8.657,0,0,1,202.59,211.257Z" transform="translate(-191.986 -191.989)" fill="#073648"/>
      </g>
    </g>
    <g id="Group_4462" data-name="Group 4462" transform="translate(36.067 36.065)">
      <g id="Group_4461" data-name="Group 4461">
        <path id="Path_3398" data-name="Path 3398" d="M404.477,400.356l-6.13-6.128a.976.976,0,0,0-1.381,0l-2.724,2.724a.977.977,0,0,0,0,1.381l6.13,6.131a.976.976,0,0,0,.69.286h0a.976.976,0,0,0,.69-.289l2.724-2.724A.977.977,0,0,0,404.477,400.356Zm-3.415,2.037-4.749-4.75,1.344-1.344,4.749,4.75Z" transform="translate(-393.956 -393.942)" fill="#073648"/>
      </g>
    </g>
    <g id="Group_4464" data-name="Group 4464" transform="translate(34.309 34.307)">
      <g id="Group_4463" data-name="Group 4463" transform="translate(0 0)">
        <rect id="Rectangle_1072" data-name="Rectangle 1072" width="1.953" height="4.816" transform="translate(0 1.381) rotate(-45)" fill="#073648"/>
      </g>
    </g>
    <g id="Group_4466" data-name="Group 4466" transform="translate(28.32 21.483)">
      <g id="Group_4465" data-name="Group 4465">
        <path id="Path_3399" data-name="Path 3399" d="M309.334,234.667v1.953a4.888,4.888,0,0,1,4.883,4.883h1.953A6.843,6.843,0,0,0,309.334,234.667Z" transform="translate(-309.334 -234.667)" fill="#073648"/>
      </g>
    </g>
    <g id="Group_4468" data-name="Group 4468" transform="translate(9.766 33.202)">
      <g id="Group_4467" data-name="Group 4467">
        <rect id="Rectangle_1073" data-name="Rectangle 1073" width="7.812" height="1.953" fill="#073648"/>
      </g>
    </g>
    <g id="Group_4470" data-name="Group 4470" transform="translate(11.719 3.906)">
      <g id="Group_4469" data-name="Group 4469">
        <path id="Path_3400" data-name="Path 3400" d="M130.931,42.667a2.93,2.93,0,1,0,2.93,2.93A2.93,2.93,0,0,0,130.931,42.667Zm0,3.906a.977.977,0,1,1,.977-.977A.977.977,0,0,1,130.931,46.573Z" transform="translate(-128.001 -42.667)" fill="#073648"/>
      </g>
    </g>
    <g id="Group_4472" data-name="Group 4472" transform="translate(18.555 10.742)">
      <g id="Group_4471" data-name="Group 4471">
        <path id="Path_3401" data-name="Path 3401" d="M205.6,117.333a2.93,2.93,0,1,0,2.93,2.93A2.93,2.93,0,0,0,205.6,117.333Zm0,3.906a.977.977,0,1,1,.977-.977A.977.977,0,0,1,205.6,121.239Z" transform="translate(-202.668 -117.333)" fill="#073648"/>
      </g>
    </g>
    <g id="Group_4474" data-name="Group 4474" transform="translate(8.099 7.122)">
      <g id="Group_4473" data-name="Group 4473" transform="translate(0 0)">
        <rect id="Rectangle_1074" data-name="Rectangle 1074" width="6.905" height="1.953" transform="translate(0 4.882) rotate(-45)" fill="#073648"/>
      </g>
    </g>
    <g id="Group_4476" data-name="Group 4476" transform="translate(14.93 7.124)">
      <g id="Group_4475" data-name="Group 4475" transform="translate(0 0)">
        <rect id="Rectangle_1075" data-name="Rectangle 1075" width="1.953" height="6.905" transform="translate(0 1.381) rotate(-45)" fill="#073648"/>
      </g>
    </g>
    <g id="Group_4478" data-name="Group 4478" transform="translate(25.39 3.906)">
      <g id="Group_4477" data-name="Group 4477">
        <path id="Path_3402" data-name="Path 3402" d="M280.264,42.667a2.93,2.93,0,1,0,2.93,2.93A2.93,2.93,0,0,0,280.264,42.667Zm0,3.906a.977.977,0,1,1,.977-.977A.977.977,0,0,1,280.264,46.573Z" transform="translate(-277.334 -42.667)" fill="#073648"/>
      </g>
    </g>
    <g id="Group_4480" data-name="Group 4480" transform="translate(21.77 7.125)">
      <g id="Group_4479" data-name="Group 4479" transform="translate(0 0)">
        <rect id="Rectangle_1076" data-name="Rectangle 1076" width="6.905" height="1.953" transform="translate(0 4.882) rotate(-45)" fill="#073648"/>
      </g>
    </g>
  </g>
</svg>
