<svg xmlns="http://www.w3.org/2000/svg" width="44" height="44" viewBox="0 0 44 44">
  <g id="Group_4623" data-name="Group 4623" transform="translate(1 1)">
    <path id="path1383" d="M-293.666-146.833a10.5,10.5,0,0,1-10.5,10.5,10.5,10.5,0,0,1-10.5-10.5,10.5,10.5,0,0,1,10.5-10.5A10.5,10.5,0,0,1-293.666-146.833Z" transform="translate(325.166 157.333)" fill="none" stroke="#fdb813" stroke-linecap="round" stroke-linejoin="round" stroke-miterlimit="10" stroke-width="2"/>
    <path id="path1387" d="M0-124.676a17.494,17.494,0,0,1,15.253-8.916,17.494,17.494,0,0,1,15.253,8.916" transform="translate(5.747 154.592)" fill="none" stroke="#fdb813" stroke-linecap="round" stroke-linejoin="round" stroke-miterlimit="10" stroke-width="2"/>
    <path id="path1391" d="M-73-146l-5.22-10.441,21,7,21-7L-41.443-146l-15.78,3.559Z" transform="translate(78.222 184.444)" fill="none" stroke="#fdb813" stroke-linecap="round" stroke-linejoin="round" stroke-miterlimit="10" stroke-width="2"/>
    <path id="path1395" d="M0,0V7" transform="translate(21 35)" fill="none" stroke="#fdb813" stroke-linecap="round" stroke-linejoin="round" stroke-miterlimit="10" stroke-width="2"/>
  </g>
</svg>
