<svg xmlns="http://www.w3.org/2000/svg" width="54" height="54" viewBox="0 0 54 54">
  <g id="Group_4568" data-name="Group 4568" transform="translate(1 1)">
    <g id="g2398">
      <path id="path2400" d="M-590.665-295.333a26,26,0,0,1-26,26,26,26,0,0,1-26-26,26,26,0,0,1,26-26A26,26,0,0,1-590.665-295.333Z" transform="translate(642.665 321.333)" fill="none" stroke="#073648" stroke-linecap="round" stroke-linejoin="round" stroke-width="2"/>
    </g>
    <g id="g2402" transform="translate(21.321 21.431)">
      <path id="path2404" d="M-106.947-53.474a4.708,4.708,0,0,1-4.708,4.708,4.708,4.708,0,0,1-4.708-4.708,4.708,4.708,0,0,1,4.708-4.708A4.708,4.708,0,0,1-106.947-53.474Z" transform="translate(116.362 58.181)" fill="none" stroke="#073648" stroke-linecap="round" stroke-linejoin="round" stroke-width="2"/>
    </g>
    <g id="g2406" transform="translate(20.351 5.94)">
      <path id="path2408" d="M-20.873-198.525l-1.781-11.768a4.962,4.962,0,0,1,4.638-5.7,34.732,34.732,0,0,1,7.294,1.087l-2.471,16.381" transform="translate(22.711 216.002)" fill="none" stroke="#073648" stroke-linecap="round" stroke-linejoin="round" stroke-width="2"/>
    </g>
    <g id="g2410" transform="translate(6.344 24.616)">
      <path id="path2412" d="M-172.993,0l-15.23,6.09.429,1.028a26.824,26.824,0,0,0,3.662,6.235,4.955,4.955,0,0,0,7.216.593l8.511-7.7" transform="translate(188.222)" fill="none" stroke="#073648" stroke-linecap="round" stroke-linejoin="round" stroke-width="2"/>
    </g>
    <g id="g2414" transform="translate(26.029 24.526)">
      <path id="path2416" d="M-50.253,0l10.426,4.7a4.966,4.966,0,0,1,2.058,7.323,23.882,23.882,0,0,1-4.84,5.227L-54.677,6.339" transform="translate(54.677)" fill="none" stroke="#073648" stroke-linecap="round" stroke-linejoin="round" stroke-width="2"/>
    </g>
    <g id="g2418" transform="translate(11.961 16.477)">
      <path id="path2420" d="M0-82.687a13.188,13.188,0,0,1,3.969-7.279" transform="translate(0 89.966)" fill="none" stroke="#073648" stroke-linecap="round" stroke-linejoin="round" stroke-width="2"/>
    </g>
    <g id="g2422" transform="translate(21.926 41.767)">
      <path id="path2424" d="M-94.149,0a13.187,13.187,0,0,1-8.288.2" transform="translate(102.437)" fill="none" stroke="#073648" stroke-linecap="round" stroke-linejoin="round" stroke-width="2"/>
    </g>
    <g id="g2426" transform="translate(36.435 16.705)">
      <path id="path2428" d="M0,0A13.187,13.187,0,0,1,4.32,7.077" fill="none" stroke="#073648" stroke-linecap="round" stroke-linejoin="round" stroke-width="2"/>
    </g>
  </g>
</svg>
