<svg xmlns="http://www.w3.org/2000/svg" width="36.957" height="65.288" viewBox="0 0 36.957 65.288">
  <g id="Group_4564" data-name="Group 4564" transform="translate(-1199.162 -2290.333)">
    <path id="path946" d="M252.8-235.574H231.637V-259.3H252.8Z" transform="translate(975.421 2590.195)" fill="none" stroke="#073648" stroke-linecap="round" stroke-linejoin="round" stroke-width="2"/>
    <path id="path950" d="M-279.865-31.821v-3.4h-29.883v3.4a2.1,2.1,0,0,0,2.094,2.1h-.329v5.714h.329a2.1,2.1,0,0,0-2.094,2.1v3.429a2.1,2.1,0,0,0,2.094,2.1h-.329v5.714h.329a2.1,2.1,0,0,0-2.094,2.1v1.443a2.1,2.1,0,0,0,1.241,1.913l5.973,2.989h15.457l5.972-2.989a2.1,2.1,0,0,0,1.241-1.913V-8.581a2.1,2.1,0,0,0-2.094-2.1h.329v-5.714h-.329a2.1,2.1,0,0,0,2.094-2.1v-3.429a2.1,2.1,0,0,0-2.094-2.1h.329v-5.714h-.329A2.1,2.1,0,0,0-279.865-31.821Z" transform="translate(1512.447 2326.552)" fill="none" stroke="#073648" stroke-linecap="round" stroke-linejoin="round" stroke-width="2"/>
    <path id="path954" d="M-327.383-283.821H-362.34v-26.991a3.315,3.315,0,0,1,3.315-3.315H-330.7a3.315,3.315,0,0,1,3.315,3.315Z" transform="translate(1562.502 2638.443)" fill="none" stroke="#073648" stroke-linecap="round" stroke-linejoin="round" stroke-width="2"/>
    <path id="path958" d="M0,0H2.084" transform="translate(1213.082 2336.451)" fill="none" stroke="#073648" stroke-linecap="round" stroke-linejoin="round" stroke-width="2"/>
    <path id="path962" d="M0,0V2.329" transform="translate(1214.124 2336.777)" fill="none" stroke="#073648" stroke-linecap="round" stroke-linejoin="round" stroke-width="2"/>
    <path id="path966" d="M0,0H2.084" transform="translate(1220.115 2336.451)" fill="none" stroke="#073648" stroke-linecap="round" stroke-linejoin="round" stroke-width="2"/>
    <path id="path970" d="M0,0V2.329" transform="translate(1221.157 2336.777)" fill="none" stroke="#073648" stroke-linecap="round" stroke-linejoin="round" stroke-width="2"/>
  </g>
</svg>
