<svg xmlns="http://www.w3.org/2000/svg" width="55.776" height="54.414" viewBox="0 0 55.776 54.414">
  <g id="Group_4567" data-name="Group 4567" transform="translate(1 1.414)">
    <path id="path361" d="M73.776-213.278H20v-13.388H73.776Z" transform="translate(-20 261.931)" fill="none" stroke="#073648" stroke-linecap="round" stroke-linejoin="round" stroke-width="2"/>
    <path id="path365" d="M0,0V3.347" transform="translate(46.97 40.285)" fill="none" stroke="#073648" stroke-linecap="round" stroke-linejoin="round" stroke-width="2"/>
    <path id="path369" d="M0,0V3.347" transform="translate(40.276 40.285)" fill="none" stroke="#073648" stroke-linecap="round" stroke-linejoin="round" stroke-width="2"/>
    <path id="path373" d="M0,0V3.347" transform="translate(33.582 40.285)" fill="none" stroke="#073648" stroke-linecap="round" stroke-linejoin="round" stroke-width="2"/>
    <path id="path377" d="M0,0V3.347" transform="translate(6.806 40.285)" fill="none" stroke="#073648" stroke-linecap="round" stroke-linejoin="round" stroke-width="2"/>
    <g id="g387" transform="translate(6.806 48.698)">
      <path id="path389" d="M0-36.159v-3.3" transform="translate(0 39.461)" fill="none" stroke="#073648" stroke-linecap="round" stroke-linejoin="round" stroke-width="2"/>
    </g>
    <g id="g391" transform="translate(46.97 48.698)">
      <path id="path393" d="M0-36.159v-3.3" transform="translate(0 39.461)" fill="none" stroke="#073648" stroke-linecap="round" stroke-linejoin="round" stroke-width="2"/>
    </g>
    <path id="path397" d="M0,0V23.429" transform="translate(26.888 11.836)" fill="none" stroke="#073648" stroke-linecap="round" stroke-linejoin="round" stroke-width="2"/>
    <g id="g407" transform="translate(16.847 4.736)">
      <path id="path409" d="M-32.233,0a9.971,9.971,0,0,0-2.943,7.1,9.964,9.964,0,0,0,2.94,7.1" transform="translate(35.176)" fill="none" stroke="#073648" stroke-linecap="round" stroke-linejoin="round" stroke-width="2"/>
    </g>
    <g id="g411" transform="translate(10.153)">
      <path id="path413" d="M-53.673-259.183a16.618,16.618,0,0,1-4.9-11.832,16.628,16.628,0,0,1,4.9-11.836" transform="translate(58.575 282.851)" fill="none" stroke="#073648" stroke-linecap="round" stroke-linejoin="round" stroke-width="2"/>
    </g>
    <g id="g415" transform="translate(33.986 4.74)">
      <path id="path417" d="M0-155.452a9.972,9.972,0,0,0,2.943-7.1,9.965,9.965,0,0,0-2.94-7.1" transform="translate(0 169.648)" fill="none" stroke="#073648" stroke-linecap="round" stroke-linejoin="round" stroke-width="2"/>
    </g>
    <g id="g419" transform="translate(38.719 0.003)">
      <path id="path421" d="M-.035,0a16.618,16.618,0,0,1,4.9,11.832,16.628,16.628,0,0,1-4.9,11.836" transform="translate(0.039)" fill="none" stroke="#073648" stroke-linecap="round" stroke-linejoin="round" stroke-width="2"/>
    </g>
    <g id="g423" transform="translate(16.847 4.735)">
      <path id="path425" d="M-32.214-155.524a9.976,9.976,0,0,1-2.942-7.1,9.976,9.976,0,0,1,2.942-7.1" transform="translate(35.156 169.726)" fill="none" stroke="#073648" stroke-linecap="round" stroke-linejoin="round" stroke-width="2"/>
    </g>
    <g id="g427" transform="translate(33.987 4.735)">
      <path id="path429" d="M0,0A9.976,9.976,0,0,1,2.942,7.1,9.976,9.976,0,0,1,0,14.2" fill="none" stroke="#073648" stroke-linecap="round" stroke-linejoin="round" stroke-width="2"/>
    </g>
  </g>
</svg>
