<svg xmlns="http://www.w3.org/2000/svg" xmlns:xlink="http://www.w3.org/1999/xlink" width="152.789" height="114.468" viewBox="0 0 152.789 114.468">
  <defs>
    <linearGradient id="linear-gradient" x1="-40.016" y1="26.074" x2="-39.016" y2="26.074" gradientUnits="objectBoundingBox">
      <stop offset="0" stop-color="#00c2c0"/>
      <stop offset="1" stop-color="#00aeef"/>
    </linearGradient>
    <linearGradient id="linear-gradient-2" x1="-40.013" y1="26.034" x2="-39.013" y2="26.034" xlink:href="#linear-gradient"/>
    <linearGradient id="linear-gradient-3" x1="-65.409" y1="57.79" x2="-64.409" y2="57.79" xlink:href="#linear-gradient"/>
    <linearGradient id="linear-gradient-4" x1="-81.311" y1="67.68" x2="-80.311" y2="67.68" xlink:href="#linear-gradient"/>
    <linearGradient id="linear-gradient-5" x1="-40.06" y1="26.074" x2="-39.06" y2="26.074" xlink:href="#linear-gradient"/>
    <linearGradient id="linear-gradient-6" x1="-72.639" y1="78.144" x2="-71.639" y2="78.144" xlink:href="#linear-gradient"/>
    <linearGradient id="linear-gradient-7" x1="-64.677" y1="76.002" x2="-63.677" y2="76.002" xlink:href="#linear-gradient"/>
    <linearGradient id="linear-gradient-8" x1="-47.532" y1="26.073" x2="-46.532" y2="26.073" xlink:href="#linear-gradient"/>
  </defs>
  <g id="Group_1040" data-name="Group 1040" transform="translate(-3.015 -5.386)">
    <path id="Path_693" data-name="Path 693" d="M155.8,96.034a8.9,8.9,0,0,0-3.4-7.256,10.1,10.1,0,0,0-4.3-1.953h3.067L155.8,87V33.928A28.457,28.457,0,0,0,127.379,5.5H110.813A28.274,28.274,0,0,0,98.885,8.123,27.462,27.462,0,0,0,87.154,5.5H66.869v0H44.5V31.04L16.194,5.386H3.015V86.84H4.068v19.192H6.243a7.555,7.555,0,0,0,4.381,13.746,8.94,8.94,0,0,0,1.319-.1h8.625v0h8.542l.75-1.943.772,1.943H40.4a13.472,13.472,0,0,0,2.09.166,13.636,13.636,0,0,0,5.056-.86l.5-.216a12.1,12.1,0,0,0,5.131,1.075,17.05,17.05,0,0,0,2.325-.17H64.74v.007h13.9c.849.062,1.754.094,2.753.094a15.616,15.616,0,0,0,5.493-.91v.814h20.506l.749-1.942.771,1.942h20.465v-.45a10.99,10.99,0,0,0,3.71.631,11.154,11.154,0,0,0,3.928-.694v.513h5.007a5.029,5.029,0,0,0,3.991-1.465l1.071,1.465h8.05V100.2h-.182A10.3,10.3,0,0,0,155.8,96.034ZM54.141,86.559v.461a11,11,0,0,0-3.735-.639,10.862,10.862,0,0,0-3.906.712v-.534H43.4v0H32.2V59.287l30.09,27.271H54.141Zm72.475,0h-7.066l-1.034,2.6a10.1,10.1,0,0,0-7.191-2.778,10.439,10.439,0,0,0-6.195,1.959c-.153-.121-.307-.243-.475-.352a10.158,10.158,0,0,0-5.877-1.511,24.059,24.059,0,0,0-3.378.23H93.314a27.7,27.7,0,0,0,23.352-18.3h9.95V86.556ZM113.644,40.942a27.042,27.042,0,0,0,1.093-6.249h11.878v6.249Z" transform="translate(0 0)" fill="#fff"/>
    <g id="Group_1039" data-name="Group 1039" transform="translate(7.238 9.608)">
      <g id="Group_1037" data-name="Group 1037">
        <g id="Group_1034" data-name="Group 1034">
          <path id="Path_694" data-name="Path 694" d="M60.133,9.776V65.908l-41.489-37.6V82.667H28.15V49.81L64.385,82.65h5.09c.055,0,.106.007.161.009V9.776Z" transform="translate(-7.408 -9.656)" fill="url(#linear-gradient)"/>
          <path id="Path_695" data-name="Path 695" d="M16.791,82.666V24.409l41.489,37.6V9.775H48.773V40.613L14.611,9.655H7.284V82.666Z" transform="translate(-7.284 -9.655)" fill="url(#linear-gradient-2)"/>
        </g>
        <g id="Group_1035" data-name="Group 1035" transform="translate(93.408 0.119)">
          <path id="Path_696" data-name="Path 696" d="M128.548,21.134H111.981a12.8,12.8,0,0,0-1.665.118,24.844,24.844,0,0,1,3,9.391h15.234A3.461,3.461,0,0,1,132,34.1V45.337h-19.42a25.122,25.122,0,0,1,3.733,8.642h25.195V34.1A12.977,12.977,0,0,0,128.548,21.134Z" transform="translate(-101.813 -9.899)" fill="url(#linear-gradient-3)"/>
          <path id="Path_697" data-name="Path 697" d="M132.072,64.732V83.153h9.507V56.087H116.707a24.689,24.689,0,0,1,.276,3.674,25.106,25.106,0,0,1-.5,4.97h15.588Z" transform="translate(-101.88 -10.279)" fill="url(#linear-gradient-4)"/>
          <path id="Path_698" data-name="Path 698" d="M128.454,19.282a14.71,14.71,0,0,1,14.693,14.694V82.649h9.131c.131,0,.251.013.377.019V33.977a24.231,24.231,0,0,0-24.2-24.2H111.886a24.187,24.187,0,0,0-10.167,2.235,25.388,25.388,0,0,1,7.568,7.524,14.736,14.736,0,0,1,2.6-.251h16.568Z" transform="translate(-101.719 -9.775)" fill="url(#linear-gradient-5)"/>
        </g>
        <g id="Group_1036" data-name="Group 1036" transform="translate(63.852 0.117)">
          <path id="Path_699" data-name="Path 699" d="M99.932,33.306A12.186,12.186,0,0,0,87.76,21.134H71.841v9.507H87.9a2.665,2.665,0,0,1,0,5.329H71.841v9.507H87.76A12.183,12.183,0,0,0,99.932,33.306Z" transform="translate(-71.838 -9.897)" fill="url(#linear-gradient-6)"/>
          <path id="Path_700" data-name="Path 700" d="M103.387,59.667A12.186,12.186,0,0,0,91.215,47.5H71.838V57H91.357a2.665,2.665,0,1,1,0,5.329H71.838v9.507H91.215A12.185,12.185,0,0,0,103.387,59.667Z" transform="translate(-71.838 -10.183)" fill="url(#linear-gradient-7)"/>
          <path id="Path_701" data-name="Path 701" d="M108.793,43.69A23.364,23.364,0,0,0,87.9,9.773H71.841V19.28H87.76a13.891,13.891,0,0,1,6.164,26.344A13.9,13.9,0,0,1,91.217,73.16H71.841v9.507H91.36A23.369,23.369,0,0,0,108.793,43.69Z" transform="translate(-71.838 -9.773)" fill="url(#linear-gradient-8)"/>
        </g>
      </g>
      <g id="Group_1038" data-name="Group 1038" transform="translate(0.003 80.995)">
        <path id="Path_702" data-name="Path 702" d="M8.348,102.749V91.721h1.816L14.295,97.3a30.552,30.552,0,0,1,2.313,3.584l.038-.015a42.165,42.165,0,0,1-.192-4.53V91.721h1.566v11.028H16.337l-4.089-5.6a33.654,33.654,0,0,1-2.407-3.681l-.057.015c.095,1.39.135,2.716.135,4.547v4.712Z" transform="translate(-7.299 -91.543)" fill="#00c2c0"/>
        <path id="Path_703" data-name="Path 703" d="M23.143,99.278l-1.337,3.47H20.085l4.378-11.027h2.008l4.4,11.027H29.09L27.713,99.28H23.144v0Zm4.226-1.113-1.262-3.172c-.287-.722-.479-1.375-.668-2.012H25.4c-.19.652-.4,1.326-.651,2l-1.262,3.191,3.882,0Z" transform="translate(-7.426 -91.543)" fill="#00c2c0"/>
        <path id="Path_704" data-name="Path 704" d="M33.848,92.93H29.929V91.719h9.54V92.93H35.53v9.817H33.849V92.93Z" transform="translate(-7.533 -91.543)" fill="#00c2c0"/>
        <path id="Path_705" data-name="Path 705" d="M42.691,91.721v11.028H41.027V91.721Z" transform="translate(-7.654 -91.543)" fill="#00c2c0"/>
        <path id="Path_706" data-name="Path 706" d="M56.653,97.119c0,3.8-2.7,5.809-5.984,5.809a5.429,5.429,0,0,1-5.791-5.594,5.629,5.629,0,0,1,5.984-5.792C54.378,91.538,56.653,93.847,56.653,97.119Zm-10,.177c0,2.357,1.491,4.469,4.11,4.469,2.637,0,4.128-2.079,4.128-4.581,0-2.191-1.337-4.484-4.11-4.484C48.03,92.7,46.655,94.877,46.655,97.3Z" transform="translate(-7.696 -91.541)" fill="#00c2c0"/>
        <path id="Path_707" data-name="Path 707" d="M58.972,102.749V91.721h1.816L64.919,97.3a30.44,30.44,0,0,1,2.314,3.584l.038-.015a42.189,42.189,0,0,1-.19-4.53V91.721h1.566v11.028H66.962l-4.09-5.6a34.141,34.141,0,0,1-2.41-3.681l-.057.015c.095,1.39.135,2.716.135,4.547v4.712Z" transform="translate(-7.849 -91.543)" fill="#00c2c0"/>
        <path id="Path_708" data-name="Path 708" d="M73.77,99.278l-1.339,3.468H70.71l4.378-11.028H77.1l4.4,11.028H79.715l-1.377-3.468ZM78,98.165l-1.26-3.172c-.289-.722-.479-1.375-.668-2.012h-.041c-.192.652-.4,1.326-.649,2l-1.262,3.191,3.879,0Z" transform="translate(-7.977 -91.543)" fill="#00c2c0"/>
        <path id="Path_709" data-name="Path 709" d="M83.532,91.721H85.2v9.833h5.5v1.2H83.532Z" transform="translate(-8.116 -91.543)" fill="#00c2c0"/>
        <path id="Path_710" data-name="Path 710" d="M96.756,91.868a18.675,18.675,0,0,1,3.041-.229,6,6,0,0,1,3.537.8,2.211,2.211,0,0,1,1.07,1.947,2.715,2.715,0,0,1-2.18,2.423v.031a3.017,3.017,0,0,1,2.658,2.765,2.794,2.794,0,0,1-1.091,2.209c-.9.705-2.351,1.031-4.454,1.031a22.673,22.673,0,0,1-2.582-.133V91.868Zm1.665,4.513h1.51c1.759,0,2.79-.784,2.79-1.849,0-1.293-1.147-1.8-2.828-1.8a7.907,7.907,0,0,0-1.473.1Zm0,5.285a10.233,10.233,0,0,0,1.4.068c1.721,0,3.307-.541,3.307-2.144,0-1.507-1.509-2.13-3.327-2.13H98.419v4.206Z" transform="translate(-8.26 -91.542)" fill="#00c2c0"/>
        <path id="Path_711" data-name="Path 711" d="M118.242,97.119c0,3.8-2.7,5.809-5.985,5.809a5.428,5.428,0,0,1-5.79-5.594,5.63,5.63,0,0,1,5.984-5.792C115.967,91.538,118.242,93.847,118.242,97.119Zm-10,.177c0,2.357,1.491,4.469,4.11,4.469,2.639,0,4.131-2.079,4.131-4.581,0-2.191-1.34-4.484-4.111-4.484C109.621,92.7,108.242,94.877,108.242,97.3Z" transform="translate(-8.366 -91.541)" fill="#00c2c0"/>
        <path id="Path_712" data-name="Path 712" d="M122.364,99.278l-1.339,3.468h-1.72l4.377-11.028h2.008l4.4,11.028h-1.778l-1.377-3.468Zm4.225-1.113-1.261-3.172c-.288-.722-.478-1.375-.666-2.012h-.041c-.192.652-.4,1.326-.65,2l-1.261,3.191,3.878,0Z" transform="translate(-8.506 -91.543)" fill="#00c2c0"/>
        <path id="Path_713" data-name="Path 713" d="M132.125,91.868a20.045,20.045,0,0,1,3.192-.229,5.9,5.9,0,0,1,3.729.9,2.567,2.567,0,0,1,1.013,2.094,2.993,2.993,0,0,1-2.43,2.813v.048a2.833,2.833,0,0,1,1.893,2.224,15.529,15.529,0,0,0,1,3.027H138.8a12.565,12.565,0,0,1-.861-2.634,2.374,2.374,0,0,0-2.581-2.144h-1.567v4.776h-1.664V91.868Zm1.664,5.021h1.7c1.778,0,2.906-.832,2.906-2.093,0-1.422-1.2-2.045-2.963-2.06a8.039,8.039,0,0,0-1.644.131Z" transform="translate(-8.645 -91.542)" fill="#00c2c0"/>
        <path id="Path_714" data-name="Path 714" d="M142.529,91.868a27.629,27.629,0,0,1,3.537-.229,8.214,8.214,0,0,1,5.219,1.375,4.735,4.735,0,0,1,1.816,3.958,5.388,5.388,0,0,1-1.853,4.285,8.826,8.826,0,0,1-5.7,1.589c-1.187,0-2.18-.048-3.021-.133V91.868Zm1.663,9.751a12.289,12.289,0,0,0,1.683.081c3.555,0,5.485-1.7,5.485-4.68.02-2.6-1.7-4.256-5.218-4.256a10.823,10.823,0,0,0-1.952.149v8.705Z" transform="translate(-8.758 -91.542)" fill="#00c2c0"/>
        <path id="Path_715" data-name="Path 715" d="M14.161,113.3a3.247,3.247,0,0,1-3.493,3.393,3.171,3.171,0,0,1-3.382-3.268,3.287,3.287,0,0,1,3.495-3.382A3.146,3.146,0,0,1,14.161,113.3Zm-5.838.106a2.418,2.418,0,1,0,2.411-2.684A2.421,2.421,0,0,0,8.324,113.408Z" transform="translate(-7.287 -91.742)" fill="#00c2c0"/>
        <path id="Path_716" data-name="Path 716" d="M15.509,110.15h4.052v.7H16.479v2.14h2.846v.688H16.479v2.913h-.971Z" transform="translate(-7.376 -91.743)" fill="#00c2c0"/>
        <path id="Path_717" data-name="Path 717" d="M27.785,113.069l-1.337,3.469H24.727L29.1,105.51h2.008l4.4,11.028H33.732l-1.377-3.469Zm4.223-1.111-1.26-3.174c-.287-.721-.479-1.373-.668-2.011h-.04c-.19.653-.4,1.326-.651,2l-1.262,3.189Z" transform="translate(-7.477 -91.693)" fill="#00c2c0"/>
        <path id="Path_718" data-name="Path 718" d="M46.254,116.179a9.523,9.523,0,0,1-3.4.522c-3.631,0-6.365-1.964-6.365-5.579,0-3.451,2.734-5.792,6.729-5.792a7.868,7.868,0,0,1,3.058.492l-.4,1.162a6.9,6.9,0,0,0-2.6-.459c-3.021,0-5.028,1.653-5.028,4.547,0,2.7,1.816,4.433,4.951,4.433a7.611,7.611,0,0,0,2.714-.46Z" transform="translate(-7.605 -91.691)" fill="#00c2c0"/>
        <path id="Path_719" data-name="Path 719" d="M57.063,116.179a9.523,9.523,0,0,1-3.4.522c-3.631,0-6.365-1.964-6.365-5.579,0-3.451,2.734-5.792,6.729-5.792a7.868,7.868,0,0,1,3.058.492l-.4,1.162a6.9,6.9,0,0,0-2.6-.459c-3.021,0-5.028,1.653-5.028,4.547,0,2.7,1.816,4.433,4.951,4.433a7.611,7.611,0,0,0,2.714-.46Z" transform="translate(-7.722 -91.691)" fill="#00c2c0"/>
        <path id="Path_720" data-name="Path 720" d="M59.282,105.658a20.157,20.157,0,0,1,3.192-.228,5.9,5.9,0,0,1,3.729.9,2.571,2.571,0,0,1,1.013,2.094,3,3,0,0,1-2.429,2.813v.049a2.84,2.84,0,0,1,1.893,2.224,15.65,15.65,0,0,0,.993,3.026H65.952a12.738,12.738,0,0,1-.861-2.634,2.372,2.372,0,0,0-2.582-2.144H60.944v4.775H59.28V105.658Zm1.662,5.024h1.7c1.778,0,2.906-.834,2.906-2.094,0-1.423-1.2-2.046-2.963-2.06a8.039,8.039,0,0,0-1.644.131Z" transform="translate(-7.853 -91.692)" fill="#00c2c0"/>
        <path id="Path_721" data-name="Path 721" d="M76.358,111.37H71.35v3.975h5.583v1.2H69.687V105.514h6.959v1.2H71.352v3.485H76.36l0,1.175Z" transform="translate(-7.966 -91.693)" fill="#00c2c0"/>
        <path id="Path_722" data-name="Path 722" d="M79.2,105.658a27.811,27.811,0,0,1,3.536-.228,8.24,8.24,0,0,1,5.223,1.373,4.738,4.738,0,0,1,1.816,3.958,5.383,5.383,0,0,1-1.855,4.285,8.809,8.809,0,0,1-5.7,1.59c-1.186,0-2.18-.048-3.021-.133V105.659h0Zm1.663,9.752a12.094,12.094,0,0,0,1.684.083c3.556,0,5.485-1.7,5.485-4.681.02-2.6-1.7-4.257-5.219-4.257a11.023,11.023,0,0,0-1.951.149v8.705Z" transform="translate(-8.069 -91.692)" fill="#00c2c0"/>
        <path id="Path_723" data-name="Path 723" d="M93.742,105.512V116.54H92.078V105.512Z" transform="translate(-8.209 -91.693)" fill="#00c2c0"/>
        <path id="Path_724" data-name="Path 724" d="M99.13,106.721H95.214V105.51h9.538v1.211h-3.939v9.817H99.13v-9.817Z" transform="translate(-8.243 -91.693)" fill="#00c2c0"/>
        <path id="Path_725" data-name="Path 725" d="M106.932,113.069l-1.34,3.469h-1.72l4.378-11.028h2.008l4.4,11.028h-1.776l-1.378-3.469Zm4.224-1.111-1.259-3.174c-.289-.721-.48-1.373-.668-2.011h-.04c-.191.653-.4,1.326-.649,2l-1.262,3.189Z" transform="translate(-8.338 -91.693)" fill="#00c2c0"/>
        <path id="Path_726" data-name="Path 726" d="M117.635,106.721h-3.92V105.51h9.537v1.211h-3.938v9.817h-1.684v-9.817Z" transform="translate(-8.445 -91.693)" fill="#00c2c0"/>
        <path id="Path_727" data-name="Path 727" d="M126.479,105.512V116.54h-1.665V105.512Z" transform="translate(-8.565 -91.693)" fill="#00c2c0"/>
        <path id="Path_728" data-name="Path 728" d="M140.439,110.91c0,3.8-2.694,5.809-5.984,5.809a5.429,5.429,0,0,1-5.791-5.594,5.629,5.629,0,0,1,5.984-5.792C138.165,105.33,140.439,107.639,140.439,110.91Zm-10,.179c0,2.357,1.491,4.469,4.11,4.469,2.639,0,4.131-2.079,4.131-4.581,0-2.191-1.34-4.484-4.11-4.484C131.818,106.491,130.441,108.669,130.441,111.089Z" transform="translate(-8.607 -91.691)" fill="#00c2c0"/>
        <path id="Path_729" data-name="Path 729" d="M142.759,116.541V105.514h1.817l4.13,5.579a30.585,30.585,0,0,1,2.313,3.582l.037-.013a42.492,42.492,0,0,1-.189-4.532v-4.615h1.566v11.027h-1.683l-4.09-5.6a33.871,33.871,0,0,1-2.409-3.681l-.058.015c.1,1.39.135,2.716.135,4.548v4.711Z" transform="translate(-8.761 -91.693)" fill="#00c2c0"/>
      </g>
    </g>
    <path id="Path_730" data-name="Path 730" d="M80.22,62.679h.044l.017,1.1a.441.441,0,0,1-.058.034Z" transform="translate(-0.84 -0.623)" fill="#fff"/>
    <path id="Path_731" data-name="Path 731" d="M80.231,63.2h.038l-.038.093Z" transform="translate(-0.84 -0.629)" fill="#fff"/>
  </g>
</svg>
