<svg xmlns="http://www.w3.org/2000/svg" width="61.555" height="48" viewBox="0 0 61.555 48">
  <g id="Group_4624" data-name="Group 4624" transform="translate(-493.333 -454.666)">
    <path id="path2253" d="M0-96.983l29.778-9.684,29.778,9.684L29.778-87.3Z" transform="translate(494.333 562.332)" fill="none" stroke="#fdb813" stroke-linecap="round" stroke-linejoin="round" stroke-miterlimit="10" stroke-width="2"/>
    <path id="path2257" d="M0,0V9.566s7.263,4.842,14.492,4.842c7.3,0,14.56-4.842,14.56-4.842V0" transform="translate(509.585 470.31)" fill="none" stroke="#fdb813" stroke-linecap="round" stroke-linejoin="round" stroke-miterlimit="10" stroke-width="2"/>
    <path id="path2265" d="M-48.491-24.246a2.421,2.421,0,0,1-2.421,2.421,2.421,2.421,0,0,1-2.421-2.421,2.421,2.421,0,0,1,2.421-2.421A2.421,2.421,0,0,1-48.491-24.246Z" transform="translate(596.81 508.963)" fill="none" stroke="#fdb813" stroke-linecap="round" stroke-linejoin="round" stroke-miterlimit="10" stroke-width="2"/>
    <path id="path2269" d="M0,0V14.348" transform="translate(545.899 467.948)" fill="none" stroke="#fdb813" stroke-linecap="round" stroke-linejoin="round" stroke-miterlimit="10" stroke-width="2"/>
    <path id="path2273" d="M-36.368,0-40,14.526h7.263Z" transform="translate(582.267 487.14)" fill="none" stroke="#fdb813" stroke-linecap="round" stroke-linejoin="round" stroke-miterlimit="10" stroke-width="2"/>
  </g>
</svg>
