<svg xmlns="http://www.w3.org/2000/svg" width="21.854" height="21.895" viewBox="0 0 21.854 21.895">
  <path id="Icon_feather-phone" data-name="Icon feather-phone" d="M23.02,17.893v2.995a2,2,0,0,1-2.176,2A19.754,19.754,0,0,1,12.23,19.82,19.465,19.465,0,0,1,6.24,13.831,19.755,19.755,0,0,1,3.176,5.176,2,2,0,0,1,5.162,3H8.157a2,2,0,0,1,2,1.717,12.817,12.817,0,0,0,.7,2.8A2,2,0,0,1,10.4,9.628L9.135,10.9a15.971,15.971,0,0,0,5.989,5.989l1.268-1.268a2,2,0,0,1,2.106-.449,12.817,12.817,0,0,0,2.8.7,2,2,0,0,1,1.717,2.026Z" transform="translate(-2.167 -2)" fill="none" stroke="#063142" stroke-linecap="round" stroke-linejoin="round" stroke-width="2"/>
</svg>
