<svg xmlns="http://www.w3.org/2000/svg" width="19.918" height="19.956" viewBox="0 0 19.918 19.956">
  <path id="Icon_feather-phone-call" data-name="Icon feather-phone-call" d="M22.084,17.191v2.853a1.9,1.9,0,0,1-2.073,1.9,18.823,18.823,0,0,1-8.208-2.92A18.547,18.547,0,0,1,6.1,13.32a18.823,18.823,0,0,1-2.92-8.246A1.9,1.9,0,0,1,5.068,3H7.922a1.9,1.9,0,0,1,1.9,1.636,12.212,12.212,0,0,0,.666,2.673,1.9,1.9,0,0,1-.428,2.007L8.854,10.523A15.218,15.218,0,0,0,14.56,16.23l1.208-1.208a1.9,1.9,0,0,1,2.007-.428,12.212,12.212,0,0,0,2.673.666A1.9,1.9,0,0,1,22.084,17.191Z" transform="translate(-2.667 -2.5)" fill="none" stroke="#063142" stroke-linecap="round" stroke-linejoin="round" stroke-width="1"/>
</svg>
