<svg xmlns="http://www.w3.org/2000/svg" width="53.638" height="35.089" viewBox="0 0 53.638 35.089">
  <g id="Group_61" data-name="Group 61" transform="translate(-179.247 -4321.438)">
    <path id="Path_203" data-name="Path 203" d="M202.046,4321.438v8.954a11.707,11.707,0,0,0-5.575,1.051,4.912,4.912,0,0,0-2.376,2.606,22.982,22.982,0,0,0-.592,5.8h8.543v16.676h-22.8v-14.21a65.2,65.2,0,0,1,.549-10.507,11.464,11.464,0,0,1,3.2-5.62,14.161,14.161,0,0,1,6.444-3.747Q193.135,4321.437,202.046,4321.438Zm30.839,0v8.954a11.569,11.569,0,0,0-5.526,1.051,4.682,4.682,0,0,0-2.421,2.606,22.391,22.391,0,0,0-.55,5.8h8.5v16.676h-22.75v-14.21a65.149,65.149,0,0,1,.547-10.507,11.451,11.451,0,0,1,3.2-5.62,14.172,14.172,0,0,1,6.441-3.747Q224.023,4321.437,232.885,4321.438Z" fill="#063142"/>
  </g>
</svg>
